/* XPM */
static char *bg_big[] = {
/* columns rows colors chars-per-pixel */
"64 64 22 1 ",
"  c #656C17",
". c #72751B",
"X c #787B21",
"o c #605C48",
"O c #64604B",
"+ c #6C6852",
"@ c #7C7B6E",
"# c #807F72",
"$ c #7F8226",
"% c #838279",
"& c #848279",
"* c #878679",
"= c #88867D",
"- c #89877F",
"; c #8A8A7D",
": c #8C8A80",
"> c #8C8A81",
", c #8D8B82",
"< c #8D8B83",
"1 c #8D8C83",
"2 c #8E8C83",
"3 c #939189",
/* pixels */
"................................................................",
"................................................................",
"................................................................",
"................................................................",
"....##########<<....########........########################....",
"....##########<<....########........########################....",
"..==########<<OO....########==....==########################==..",
"..==########<<OO....########==....==########################==..",
"..==########OO......########==....==########################==..",
"..==########OO......########==....==########################==..",
"..<<<<<<<<<<OO....##########==....==########################==..",
"..<<<<<<<<<<OO....##########==....==########################==..",
"..OOOOOOOOOO....############==....==######################<<<<..",
"..OOOOOOOOOO....############==....==######################<<<<..",
"..............##############==....==####################<<OOOO..",
"..............##############==....==####################<<OOOO..",
"....########################==....==####################........",
"....########################==....==####################........",
"..==########################==....==####################........",
"..==########################==....==####################........",
"..==########################==....==####################........",
"..==########################==....==####################........",
"..==########################==....==######################......",
"..==########################==....==######################......",
"..==################<<<<<<<<OO....==########################....",
"..==################<<<<<<<<OO....==########################....",
"..==##############<<OOOOOOOO......OO<<######################==..",
"..==##############<<OOOOOOOO......OO<<######################==..",
"..==############==OO................OO<<####################==..",
"..==############==OO................OO<<####################==..",
"..OO<<<<<<<<<<<<<<....................OO<<<<<<<<<<<<<<<<<<<<OO..",
"..OO<<<<<<<<<<<<<<....................OO<<<<<<<<<<<<<<<<<<<<OO..",
"....OOOOOOOOOOOOOO......................OOOOOOOOOOOOOOOOOOOO....",
"....OOOOOOOOOOOOOo......................OoOOOOOOOOOOOOOOOOOO....",
"................................................................",
"................................................................",
"....@@@@@@@@@@@@@@@@@@@@@@@@........************==**********....",
"....@@@@@@@@@@@@@@@@@@@@@@@@........************************....",
"..*&@@@@@@@@@@@@@@@@@@@@@@@@%%....;;************************,;..",
"..&&@@@@@@@@@@@@@@@@@@@@@@@@%%....;;************************<;..",
"..&&@@@@@@@@@@@@@@@@@@@@@@@@&&....<:************************,,..",
"..&&@@@@@@@@@@@@@@@@@@@@@@@@&&....::************************,,..",
"..&&@@@@@@@@@@@@@@@@@@@@@@@@&&....33333333******************,,..",
"..&&@@@@@@@@@@@@@@@@@@@@@@@@&&....33333333******************,,..",
"..&&@@@@@@@@@@@@@@@@@@@@@@@@%%....++++++++33****************22..",
"..&&@@@@@@@@@@@@@@@@@@@@@@@@&%....++++++++33****************22..",
"..&&@@@@@@@@@@@@@@@@@@@@@@@@&&..............****************12..",
"..&&@@@@@@@@@@@@@@@@@@@@@@@@&&..............****************12..",
"..&&@@@@@@@@@@@@@@@@----------..............33**************11..",
"..&&@@@@@@@@@@@@@@@@----------..............33**************11..",
"..&&@@@@@@@@@@@@@@--oooooooo$$$$............++3333**********11..",
"..&&@@@@@@@@@@@@@@-;oooooooo$$$$............++3333**********11..",
"..&&@@@@@@@@@@@@XXoo....XXXX$$....,,******....++++33********11..",
"..&&@@@@@@@@@@@@$.oo....XXXX$$....2,******....++++33********11..",
"..&&@@@@@@@@@@>>oo$$$$..XXXX  ....22********......++33******11..",
"..&&@@@@@@@@@@:=oO$$$$..XXXX  ....22********......++33******11..",
"..#=@@@@@@%>:>oo..$$XXXX    ......22=***********....++3333331,..",
"..=#@@@@@@::%>oo..$$XXXX    ......22************....++333333:,..",
"....--=-=%oooo X..  XXXX..........22**************....++++++....",
"..X --=:::oooo....  XXXX..........22**************....++++++....",
"....oooooo..........  ............,,**************..............",
"....oooooo..........  ............2,**************..............",
"..................................++33333333333333XX............",
"..................................++33333333333333XX............"
};
