/* XPM */
static char *a8a4c0841a91435cc78d95365a678758igKx34RKVzUIVicF[] = {
/* columns rows colors chars-per-pixel */
"32 32 19 1 ",
"  c #656C17",
". c #72751B",
"X c #787B21",
"o c #64604B",
"O c #68644F",
"+ c #6C6852",
"@ c #807F72",
"# c #7F8226",
"$ c #838275",
"% c #848279",
"& c #86847A",
"* c #87857C",
"= c #87867C",
"- c #87867D",
"; c #88867D",
": c #8A887F",
"> c #8D8B83",
", c #8E8C83",
"< c #8F8D85",
/* pixels */
"...................  XX ........",
"..$$$$$$$$$$$$.......X ;@@@@@@..",
".:$$$$$$$$$$$$:.......;@@@@@@@;.",
".:$$$$$$$$$$$$:....;@@@@@@@@@@;.",
".:$$$$$$$$$$$$:..;@@@@@@@@@@@@;.",
".:$$$$$$$$$$$$:..;@@@@@@@@@@@@;.",
".:$$$$$$$$$$$$:..;@@@@@@@@@@@@;.",
".<<<<$$$$$$$$$:..;@@@@@@@@@@@@;.",
".OOOO<<<$$$$$$:..;@@@@@@@@@@@@;.",
".....OOO<$$$$$:..;@@@@@@@@@@@@;.",
".,$$$...O<$$$$%..;@@@@@@@@@@@@;.",
".,$$$$$..O<$$$%..;@@@@@@@@@@@@;.",
".,$$$$$$..O:$$%..;@@@@@@@@@@@@;.",
".,$$$$$$$X#O:%;##;@@@@@@@@@@@@;.",
".+<<<<<<<.##ooX#.o>>>>>>>>>>>>o.",
"..+OOOOOO.XX.XX ..oooooooooooo..",
"..........  .XX ................",
"..@@@@@@@@@@@  .....@@@@@@@@@@..",
".;@@@@@@@@@@@@-....@@@@@@@@@@@&.",
".;@@@@@@@@@@@@;...@@@@@@@@@@@@-.",
".;@@@@@@@@@@@@;..-@@@@@@@@@@@@-.",
".;@@@@@@@@@@@@;..-@@@@@@@@@@@@-.",
".;@@@@@@@@@@@@;..-@@@@@@@@@@@@-.",
".;@@@@@@@@@@@@;..;@@@@@@@@@@@@-.",
".;@@@@@@@@@@@@;..;@@@@@@@@@@@@-.",
".;@@@@@@@@@@@@;..;@@@@@@@@@@@@-.",
".;@@@@@@@@@@@@;..o>>>>>@@@@@@@-.",
".;@@@@@@@@@@@@;...ooooo-@@@@@@-.",
".;@@@@@@@>>>>>.........>@@@@@@-.",
".;@@@@@@>ooooo.........#X@@@@@-.",
".o>>>>>>o.........#X..X# >>>>>o.",
"..oooooo.......... XX.XX.ooooo.."
};
