/* XPM */
static char *_89e8394731e4b12f9107a934a6392aeD7frUR7Kn7o9T3sS[] = {
/* columns rows colors chars-per-pixel */
"32 32 23 1 ",
"  c #72751B",
". c #807F72",
"X c #8D8B83",
"o c #88867D",
"O c #64604B",
"+ c #7C7B6E",
"@ c #878679",
"# c #848279",
"$ c #838279",
"% c #8A8A7D",
"& c #8C8A80",
"* c #8C8A81",
"= c #8D8B82",
"- c #939189",
"; c #8D8C83",
": c #6C6852",
"> c #89877F",
", c #605C48",
"< c #7F8226",
"1 c #787B21",
"2 c #8E8C83",
"3 c #656C17",
"4 c white",
/* pixels */
"                                ",
"                                ",
"  .....X  ....    ............  ",
" o....XO  ....o  o............o ",
" o....O   ....o  o............o ",
" XXXXXO  .....o  o............o ",
" OOOOO  ......o  o...........XX ",
"       .......o  o..........XOO ",
"  ............o  o..........    ",
" o............o  o..........    ",
" o............o  o..........    ",
" o............o  o...........   ",
" o........XXXXO  o............  ",
" o.......XOOOO   OX...........o ",
" o......oO        OX..........o ",
" OXXXXXXX          OXXXXXXXXXXO ",
"  OOOOOOO           OOOOOOOOOO  ",
"                                ",
"  ++++++++++++    @@@@@@@@@@@@  ",
" #++++++++++++$  %@@@@@@@@@@@@& ",
" #++++++++++++#  *@@@@@@@@@@@@= ",
" #++++++++++++#  ----@@@@@@@@@; ",
" #++++++++++++#  ::::-@@@@@@@@; ",
" #++++++++++++#       @@@@@@@@; ",
" #++++++++>>>>>       -@@@@@@@; ",
" #+++++++>,,,,<<      :--@@@@@; ",
" #++++++1,  11<  2@@@  ::-@@@@; ",
" #+++++>,<< 113  2@@@@   :-@@@= ",
" #+++>>, <1133   2@@@@@@  :---= ",
"  >>>,,  311     2@@@@@@@  :::  ",
"  ,,,     3      2@@@@@@@       ",
"                 :-------1      "
};
