/* XPM */
static char *e3d962bd45a342f3f52e2e2e869497abeqPFu7bJ00PciYBV[] = {
/* columns rows colors chars-per-pixel */
"32 32 12 1 ",
"  c None",
". c #1C1117",
"X c #473579",
"o c #314152",
"O c #8F4029",
"+ c #993970",
"@ c #FACB3E",
"# c #5956BD",
"$ c #E2B694",
"% c #FCCBA3",
"& c gray80",
"* c #EEEEEE",
/* pixels */
"                                ",
"                                ",
"                                ",
"                                ",
"                                ",
"                                ",
"           ..                   ",
"          ..X..                 ",
"            .XX.                ",
"            .XXX.               ",
"             .X##.              ",
"             .X@##.             ",
"             .X####..           ",
"            .XX######.          ",
"           .XX#@###@##.         ",
"         ..XX##########.        ",
"        .XX@XX##########..      ",
"       .XXXXXXX@##@##@####.     ",
"        .....XXXXXXX#.....      ",
"           .&.........          ",
"           .&*%++%%%+.          ",
"           .&*%++%%%+.          ",
"           .&**$$%%%$*.         ",
"           .&&*********.        ",
"            .&&&******.         ",
"           .X#.&******.         ",
"           .X##.&****.          ",
"          .X####&&***.          ",
"          .OOOOOO&**o.          ",
"          .X#####&&*.           ",
"          .XXXXXXX&X.           ",
"           ..........           "
};
