/* XPM */
static char *f07887e5107045baee50f817bd9a0a7fAm9mSgeGHBGPz8r7[] = {
/* columns rows colors chars-per-pixel */
"32 32 114 2 ",
"   c #56311A",
".  c #5A341C",
"X  c #5E3820",
"o  c #633D24",
"O  c #663F28",
"+  c #656C17",
"@  c #72751B",
"#  c #664027",
"$  c #684127",
"%  c #664129",
"&  c #6A442B",
"*  c #6C4A2E",
"=  c #714A2F",
"-  c #6D4B31",
";  c #734C33",
":  c #784E34",
">  c #6E5032",
",  c #735135",
"<  c #795237",
"1  c #7A553A",
"2  c #7E593D",
"3  c #787B21",
"4  c #64604B",
"5  c #68644F",
"6  c #6C6852",
"7  c #805B3E",
"8  c #835D41",
"9  c #866144",
"0  c #8A6346",
"q  c #8C6549",
"w  c #8F684B",
"e  c #926C4D",
"r  c #926C4E",
"t  c #936D4F",
"y  c #916C4D",
"u  c #946D4E",
"i  c #916A4D",
"p  c #8F6D52",
"a  c #926F53",
"s  c #946E50",
"d  c #956F50",
"f  c #916F54",
"g  c #956F50",
"h  c #957051",
"j  c #967051",
"k  c #967052",
"l  c #967152",
"z  c #977153",
"x  c #927054",
"c  c #937155",
"v  c #937156",
"b  c #977152",
"n  c #9A7457",
"m  c #997455",
"M  c #977458",
"N  c #977659",
"B  c #97765B",
"V  c #97775B",
"C  c #987458",
"Z  c #987559",
"A  c #997559",
"S  c #9B7558",
"D  c #98765A",
"F  c #98775A",
"G  c #98775B",
"H  c #99775B",
"J  c #9C7658",
"K  c #9D7758",
"L  c #9C7758",
"P  c #97785B",
"I  c #9D7858",
"U  c #9D7859",
"Y  c #9D7959",
"T  c #9E795A",
"R  c #9E7A5A",
"E  c #9F7A5B",
"W  c #9F7C5B",
"Q  c #98795C",
"!  c #99795C",
"~  c #99795D",
"^  c #9A7B5F",
"/  c #9D7859",
"(  c #A47F5F",
")  c #9C7D61",
"_  c #807F72",
"`  c #807F72",
"'  c #7F8226",
"]  c #A4805F",
"[  c #838275",
"{  c #86847A",
"}  c #87857C",
"|  c #87867D",
" . c #87867D",
".. c #88867D",
"X. c #88867D",
"o. c #8A887F",
"O. c #A38060",
"+. c #A48060",
"@. c #A58060",
"#. c #A48160",
"$. c #A58160",
"%. c #A48161",
"&. c #A58161",
"*. c #A68161",
"=. c #A08264",
"-. c #A28465",
";. c #A28466",
":. c #A28566",
">. c #A38567",
",. c #A38668",
"<. c #8D8B83",
"1. c #8E8C83",
"2. c #8F8D85",
"3. c #8D8B83",
/* pixels */
"@ @ @ @ @ @ @ @ @ @ @ @ @ @ @ @ @ @ @ + + 3 3 + @ @ @ @ @ @ @ @ ",
"@ @ [ [ [ [ [ [ [ [ [ [ [ [ @ @ @ @ @ @ @ 3 + .._ _ _ _ _ _ @ @ ",
"@ o.[ [ [ [ [ [ [ [ [ [ [ [ o.@ @ @ @ @ @ @ .._ _ _ _ _ _ _ ..@ ",
"@ o.[ [ [ [ [ [ [ [ [ [ [ * & % % % & % _ _ _ _ _ _ _ _ _ _ ..@ ",
"@ o.[ [ [ [ [ [ [ [ [ - ; S S S V S V S % & _ _ _ _ _ _ _ _ ..@ ",
"@ o.[ [ [ [ [ [ [ - & n S ; ; ; ; 1 1 2 S ~ % & _ _ _ _ _ _ ..@ ",
"@ o.[ [ [ [ [ [ - n n # % 2 8 q q q q w ; ; ~ V & _ _ _ _ _ ..@ ",
"@ 2.2.2.2.[ [ & n n % < 2 2 8 q q q q w 0 8 - V ) % _ _ _ _ ..@ ",
"@ 5 5 5 5 2.2.& n % - 1 2 2 8 q q q q q 0 8 2 & ~ & _ _ _ _ ..@ ",
"@ @ @ @ @ 5 % ~ S % - 1 2 2 8 q q q q q 9 8 2 & V P . _ _ _ ..@ ",
"@ 1.[ [ [ @ o w =.% ; 1 1 2 8 8 q q q 9 9 8 1 & v < . _ _ _ ..@ ",
"@ 1.[ [ [ [ o w =.% ; ; 1 1 8 8 8 8 8 9 7 7 1 & v , . _ _ _ ..@ ",
"@ 1.[ [ [ [ # w >.>.& ; , 1 2 8 8 8 8 7 7 , - a v ; . _ _ _ ..@ ",
"@ 1.[ [ [ & w % w >.>.* - ; 2 2 2 1 2 1 ; - a p 1 . ; . _ _ ..@ ",
"@ 6 2.2.& w w k $ w w >.,.; ; ; ; ; ; - f v < : o ; ; ; . <.4 @ ",
"@ @ 6 5 & w s k I = & i i >.>.>.>.S S V 8 8 o o 1 1 ; ; . 4 @ @ ",
"@ @ @ @ & w k I I I W * * w w w w 8 8 8 & o 2 2 1 1 1 ; . @ @ @ ",
"@ @ _ _ # * k I O.&.&.&.&.< ; = * o o o i 0 0 2 2 1 < O   _ @ @ ",
"@ .._ _ # 0 , ( &.&.&.&.&.] &.I I I s r i 0 9 9 2 1 o ;   _ { @ ",
"@ .._ _ o 0 r 7 7 &.&.&.&.&.&.I I I k u i 0 9 8 o X ; -   _ } @ ",
"@ .._ _ o 0 r k k 8 9 9 &.&.] I I I k u i & $ & ; ; ; *   _ } @ ",
"@ .._ _ o 0 r 7 8 J I J 8 9 8 7 1 < ; = = 7 2 2 % # ; *   _ } @ ",
"@ .._ _ o 0 i 7 8 J I I I k k k w w w 2 2 7 2 2 & # * *   _ } @ ",
"@ .._ _ _ o ; k n n q w J k k k w w w 2 2 * * 2 ; ; .   _ _ } @ ",
"@ .._ _ _ # 8 < n n 0 0 J k 8 8 w w * * 2 & * 2 ; . *   _ _ } @ ",
"@ .._ _ _ _ o 2 ; ; m n m s 8 8 w q ; = 2 2 2 . . -   _ _ _ } @ ",
"@ .._ _ _ _ _ . 2 2 ; ; ; s s s q 0 q 2 o o o - -   _ _ _ _ } @ ",
"@ .._ _ _ _ _ _ . . 1 1 1 * * & $ # # o - * *     _ _ _ _ _ } @ ",
"@ .._ _ _ _ _ _ _ <.. . . , , , > > > -       <._ _ [ [ [ [ } @ ",
"@ .._ _ _ _ _ _ <.4 4 4 4 . . . . . .   @ @ @ ' 3 6 [ [ _ [ } @ ",
"@ 4 <.<.<.<.<.<.4 @ @ @ @ @ @ @ @ @ ' 3 @ @ 3 ' + <.<.1.<.<.4 @ ",
"@ @ 4 4 4 4 4 4 @ @ @ @ @ @ @ @ @ @ + 3 3 @ 3 3 @ 4 4 4 4 4 @ @ "
};
