/* XPM */
static char *faf180a6a0894ce6a6737f140741de04oreVmhuK0XHC3jya[] = {
/* columns rows colors chars-per-pixel */
"32 32 224 2 ",
"   c None",
".  c #583217",
"X  c #522D16",
"o  c #818023",
"O  c #522D15",
"+  c #584D41",
"@  c #512C15",
"#  c #502B15",
"$  c #6A6D1A",
"%  c #696C1A",
"&  c #574C41",
"*  c #522C15",
"=  c #654B1A",
"-  c #644A1A",
";  c #664C1A",
":  c #8C8733",
">  c #674C1A",
",  c #674D1A",
"<  c #8D8833",
"1  c #63491A",
"2  c #8E8833",
"3  c #674D1B",
"4  c #838224",
"5  c #828123",
"6  c #777622",
"7  c #767622",
"8  c #634919",
"9  c #8E8933",
"0  c #848224",
"q  c #838223",
"w  c #787722",
"e  c #777722",
"r  c #767522",
"t  c #624819",
"y  c #848324",
"u  c #838123",
"i  c #797822",
"p  c #624919",
"a  c #644B1A",
"s  c #8D8733",
"d  c #89862D",
"f  c #89872C",
"g  c #74761D",
"h  c #8F8934",
"j  c #675D1A",
"k  c #665C19",
"l  c #614719",
"z  c #604619",
"x  c #5F4519",
"c  c #888529",
"v  c #8A872E",
"b  c #74751E",
"n  c #685E1A",
"m  c #6D6F1D",
"M  c #6C6E1D",
"N  c #6C6D1D",
"B  c #5E4519",
"V  c #888429",
"C  c #75761D",
"Z  c #76771E",
"A  c #75751E",
"S  c #73751E",
"D  c #72731D",
"F  c #878429",
"G  c #766916",
"H  c #776916",
"J  c #8A872D",
"K  c #75771D",
"L  c #77781E",
"P  c #77771E",
"I  c #76761E",
"U  c #818023",
"Y  c #807F23",
"T  c #7F7E22",
"R  c #655B19",
"E  c #604519",
"W  c #89872D",
"Q  c #78771F",
"!  c #8B8632",
"~  c #8A8532",
"^  c #6E701B",
"/  c #87842D",
"(  c #88842E",
")  c #89852F",
"_  c #89862C",
"`  c #8A862D",
"'  c #80741E",
"]  c #7F741E",
"[  c #7F731D",
"{  c #77761E",
"}  c #70711B",
"|  c #6E6F1B",
" . c #6C6F1B",
".. c #5E4419",
"X. c #7F731E",
"o. c #7E731D",
"O. c #70731C",
"+. c #6E711B",
"@. c #6C6E1B",
"#. c #6B6E1B",
"$. c #6A6D1B",
"%. c #5D4418",
"&. c #71731C",
"*. c #7F7E23",
"=. c #7E7D22",
"-. c #555915",
";. c #5C4318",
":. c #787821",
">. c #7B7A23",
",. c #70721C",
"<. c #6A6C1A",
"1. c #7F7F23",
"2. c #7D7D22",
"3. c #6B6D1B",
"4. c #555815",
"5. c #7B7B25",
"6. c #797A23",
"7. c #8A8632",
"8. c #696C1A",
"9. c #686B1A",
"0. c #898432",
"q. c #888431",
"w. c #7D7C22",
"e. c #635919",
"r. c #625819",
"t. c #545916",
"y. c #5D4318",
"u. c #686A1B",
"i. c #777721",
"p. c #7A7922",
"a. c #676A1A",
"s. c #6F721C",
"d. c #888331",
"f. c #555A17",
"g. c #5D4417",
"h. c #5F4619",
"j. c #68691B",
"k. c #696A1B",
"l. c #696B1B",
"z. c #898532",
"x. c #6E711C",
"c. c #67691A",
"v. c #6F711C",
"b. c #6D701B",
"n. c #555916",
"m. c #545915",
"M. c #535715",
"N. c #5C4317",
"B. c #6F7021",
"V. c #707021",
"C. c #626418",
"Z. c #6D6F1B",
"A. c #575B17",
"S. c #575A17",
"D. c #545815",
"F. c #535815",
"G. c #5C4217",
"H. c #5D4319",
"J. c #6F6F21",
"K. c #67691B",
"L. c #616318",
"P. c #5A5E17",
"I. c #585213",
"U. c #575213",
"Y. c #565917",
"T. c #555917",
"R. c #5C5E17",
"E. c #5B5E17",
"W. c #5D4317",
"Q. c #606218",
"!. c #606318",
"~. c #7A7A28",
"^. c #7B7A28",
"/. c #5D6018",
"(. c #595E18",
"). c #595D17",
"_. c #585D17",
"`. c #575212",
"'. c #575112",
"]. c #555816",
"[. c #5B4017",
"{. c #5D4218",
"}. c #7C7A29",
"|. c #797928",
" X c #7A7928",
".X c #5C5F18",
"XX c #595C17",
"oX c #575C17",
"OX c #565112",
"+X c #636619",
"@X c #545816",
"#X c #5A3F17",
"$X c #5C4017",
"%X c #5B3F17",
"&X c #5B5E18",
"*X c #5A5D18",
"=X c #595C18",
"-X c #585C17",
";X c #585B17",
":X c #553816",
">X c #565A17",
",X c #565A16",
"<X c #636519",
"1X c #626519",
"2X c #583A16",
"3X c #593A16",
"4X c #593B16",
"5X c #593D16",
"6X c #5B3D16",
"7X c #5B3E16",
"8X c #5A3D16",
"9X c #593B15",
"0X c #575B16",
"qX c #573715",
"wX c #553815",
"eX c #543315",
"rX c #565916",
"tX c #563615",
"yX c #583715",
"uX c #583615",
"iX c #563515",
"pX c #523215",
"aX c #543415",
"sX c white",
/* pixels */
"                                                                ",
"                                                                ",
"                                                                ",
"                                                                ",
"                              = = - .                           ",
"                            ; : : : -                           ",
"                    ; > ,   , < : : =   - 1                     ",
"                  > < < 2 3 4 < < 5 5 = 6 7 8                   ",
"                  , 2 9 9 0 0 4 4 q 5 w e 7 r t                 ",
"            = ; , 4 0 0 y y y 0 0 4 u i w 6 7 p                 ",
"          a : s < 9 d f g y h 9 9 4 q 5 w e j k l z x           ",
"          = : s < 9 c v g g h h 9 9 q 5 b n j k m M N B X       ",
"            ; < < V c g g g C h 9 9 q Z A S D k m M N x X       ",
"            o ; q F G H J J K Z 9 2 L P I U Y T R M E   X       ",
"          - = 5 u 4 G y f W W Z Z Q P P : ! ~ T ^ z     O       ",
"        1 / ( ) < q 4 0 _ ` ` ' ] [ { Z ! ! ~ } |  .x ..O +     ",
"        p ~ ! : : 5 q < 2 4 ] X.[ o.: : ! ~ O.+. .@.#.$.%.@     ",
"        t ~ ! ! &.&.< < < q u u o.: : ! Y *.T =. .#.#.$.-.;.    ",
"          p :.>.,.&.: : <.5 5 5 5 : ! ! 1.T =.2.@.#.3.-.4.%.    ",
"        l :.5.6.7.! ! 8.9.: : : U U Y 1.T 0.q.w.#.e.r.t.y.@     ",
"      z u.i.i.p.~ ~ 7.a.a.! ! ! s.Y *.^ 0.q.d.@.#.f.t.g.@ @     ",
"      h.j.u.k.l.0.z.x.c.a.~ ~ v.v.+.^ b.q.d.@.#.3.n.m.M.N.@     ",
"      ..B.V.j.C.C.b.^ ^ ^ ^ ^ k ^ b.Z.Z.A.S.#.$.n.m.D.F.M.G.    ",
"      H.J.V.K.L. . .Z.Z.Z.Z.b.P.P.Z. .@.I.U.Y.T.n.R.E.E.E.G.    ",
"        W.y.Q.!.~.~.^./. . .(.)._.@.#.U.`.'.f.n.].E.E.E.[.#     ",
"      @ O   {.}.|. X~..Xe.e.XXXXoXe.`.'.OX+X+X].@XE.E.#X# #     ",
"      @ @   $X|.|.|.%X&X*X=X-X;XA.:X>X,X+X<X1X2X3X4X5X  # #     ",
"              6X7X8X$ 9X).-X0XqXwX  eXrX1X1XtX% %       # &     ",
"              @     @ O yXuXiX* * @ @ pXpXaX@ @ @ # # # & &     ",
"                                                                ",
"                                                                ",
"                                                                "
};
