/* XPM */
static char *b18c3b6ad63f4be1ec19cf658ea8429ddgtjAMQHcXObSzX8[] = {
/* columns rows colors chars-per-pixel */
"32 32 228 2 ",
"   c #523215",
".  c #543315",
"X  c #543415",
"o  c #563515",
"O  c #563615",
"+  c #573715",
"@  c #583615",
"#  c #583715",
"$  c #553815",
"%  c #553816",
"&  c #593B15",
"*  c #583A16",
"=  c #593A16",
"-  c #593B16",
";  c #593D16",
":  c #5A3D16",
">  c #5B3D16",
",  c #5B3E16",
"<  c #5A3F17",
"1  c #5B3F17",
"2  c #5B4017",
"3  c #5C4017",
"4  c #5C4217",
"5  c #5C4317",
"6  c #5D4317",
"7  c #5D4417",
"8  c #5D4218",
"9  c #5C4318",
"0  c #5D4318",
"q  c #5D4319",
"w  c #5D4418",
"e  c #5E4419",
"r  c #5E4519",
"t  c #5F4519",
"y  c #5F4619",
"u  c #565112",
"i  c #575112",
"p  c #575212",
"a  c #575213",
"s  c #535715",
"d  c #585213",
"f  c #535815",
"g  c #545815",
"h  c #555815",
"j  c #545915",
"k  c #555915",
"l  c #545816",
"z  c #555816",
"x  c #545916",
"c  c #555916",
"v  c #555917",
"b  c #565916",
"n  c #565917",
"m  c #555A17",
"M  c #565A16",
"N  c #575B16",
"B  c #565A17",
"V  c #575A17",
"C  c #575B17",
"Z  c #575C17",
"A  c #585B17",
"S  c #585C17",
"D  c #595C17",
"F  c #585D17",
"G  c #595D17",
"H  c #5A5E17",
"J  c #5B5E17",
"K  c #5C5E17",
"L  c #595C18",
"P  c #5A5D18",
"I  c #595E18",
"U  c #5B5E18",
"Y  c #5C5F18",
"T  c #604519",
"R  c #604619",
"E  c #614719",
"W  c #624819",
"Q  c #624919",
"!  c #634919",
"~  c #63491A",
"^  c #644A1A",
"/  c #644B1A",
"(  c #654B1A",
")  c #664C1A",
"_  c #674C1A",
"`  c #674D1A",
"'  c #674D1B",
"]  c #625819",
"[  c #635919",
"{  c #655B19",
"}  c #665C19",
"|  c #675D1A",
" . c #685E1A",
".. c #5D6018",
"X. c #656C17",
"o. c #606218",
"O. c #606318",
"+. c #616318",
"@. c #626418",
"#. c #626519",
"$. c #636519",
"%. c #636619",
"&. c #67691A",
"*. c #67691B",
"=. c #676A1A",
"-. c #68691B",
";. c #686B1A",
":. c #686A1B",
">. c #696A1B",
",. c #696B1B",
"<. c #696C1A",
"1. c #6A6C1A",
"2. c #6A6D1B",
"3. c #6B6D1B",
"4. c #6B6E1B",
"5. c #6C6E1B",
"6. c #6C6F1B",
"7. c #6D6F1B",
"8. c #6E6F1B",
"9. c #6C6D1D",
"0. c #6C6E1D",
"q. c #6D6F1D",
"w. c #766916",
"e. c #776916",
"r. c #6D701B",
"t. c #6E701B",
"y. c #6E711B",
"u. c #6E711C",
"i. c #6F711C",
"p. c #6F721C",
"a. c #70711B",
"s. c #72751B",
"d. c #70721C",
"f. c #70731C",
"g. c #71731C",
"h. c #72731D",
"j. c #73751E",
"k. c #74761D",
"l. c #75761D",
"z. c #75771D",
"x. c #74751E",
"c. c #75751E",
"v. c #76761E",
"b. c #77761E",
"n. c #76771E",
"m. c #77771E",
"M. c #7E731D",
"N. c #7F731D",
"B. c #7F731E",
"V. c #78771F",
"C. c #7F741E",
"Z. c #77781E",
"A. c #6F6F21",
"S. c #6F7021",
"D. c #707021",
"F. c #777721",
"G. c #767522",
"H. c #767622",
"J. c #777622",
"K. c #777722",
"L. c #787722",
"P. c #787821",
"I. c #787B21",
"U. c #797822",
"Y. c #7A7922",
"T. c #797A23",
"R. c #7B7A23",
"E. c #7D7C22",
"W. c #7D7D22",
"Q. c #7E7D22",
"!. c #7F7E22",
"~. c #7F7E23",
"^. c #7F7F23",
"/. c #7B7B25",
"(. c #797928",
"). c #7A7928",
"_. c #7A7A28",
"`. c #7B7A28",
"'. c #7C7A29",
"]. c #64604B",
"[. c #68644F",
"{. c #6C6852",
"}. c #80741E",
"|. c #807F23",
" X c #807F72",
".X c #7F8226",
"XX c #818023",
"oX c #828123",
"OX c #838123",
"+X c #838223",
"@X c #838224",
"#X c #848224",
"$X c #848324",
"%X c #878429",
"&X c #87842D",
"*X c #888429",
"=X c #888529",
"-X c #89862C",
";X c #89872C",
":X c #89862D",
">X c #89872D",
",X c #8A862D",
"<X c #8A872D",
"1X c #88842E",
"2X c #89852F",
"3X c #8A872E",
"4X c #888331",
"5X c #888431",
"6X c #898432",
"7X c #898532",
"8X c #8A8532",
"9X c #8A8632",
"0X c #8B8632",
"qX c #8C8733",
"wX c #8D8733",
"eX c #8D8833",
"rX c #8E8833",
"tX c #8E8933",
"yX c #8F8934",
"uX c #838275",
"iX c #86847A",
"pX c #87857C",
"aX c #87867D",
"sX c #88867D",
"dX c #8A887F",
"fX c #8D8B83",
"gX c #8E8C83",
"hX c #8F8D85",
/* pixels */
"s.s.s.s.s.s.s.s.s.s.s.s.s.s.s.s.s.s.s.X.X.R.R.X.s.s.s.s.s.s.s.s.",
"s.s.uXuXuXuXuXuXuXuXuXuXuXuXs.s.s.s.s.s.s.R.X.sX X X X X X Xs.s.",
"s.dXuXuXuXuXuXuXuXuXuXuXuXuXdXs.s.s.s.s.s.s.sX X X X X X X XsXs.",
"s.dXuXuXuXuXuXuXuXuXuXuXuXuXdX( ( ( s.sX X X X X X X X X X XsXs.",
"s.dXuXuXuXuXuXuXuXuXuXuXuXuX` qXqXqX(  X X X X X X X X X X XsXs.",
"s.dXuXuXuXuXuXuXuXuX` ` ` uX` eXqXqX(  X( Q  X X X X X X X XsXs.",
"s.dXuXuXuXuXuXuXuX` eXeXeX` @XeXeX+X+X( F.F.Q  X X X X X X XsXs.",
"s.hXhXhXhXuXuXuXuX` eXeXeX#X#X@X@X+X+XL.F.F.F.Q  X X X X X XsXs.",
"s.[.[.[.[.hX( ` ` @X#X#X#X#X#X#X#X#XOXR.L.F.F.Q  X X X X X XsXs.",
"s.s.s.s.s.( qXqXeXeX3X3Xk.#XyXeXeX@XOX+XL.F.} } R R e  X X XsXs.",
"s.gXuXuXuX( qXqXeXeX*X3Xk.k.yXyXeXeX+X+Xk. .} } 9.9.9.e  X XsXs.",
"s.gXuXuXuXuX` eXeX*X*Xk.k.k.k.yXeXeX+Xk.k.j.g.} 9.9.9.e  X XsXs.",
"s.gXuXuXuXuXuX` +X%Xe.e.3X3Xk.k.eXeXZ.k.k.+X|.~.{ 9.R  X X XsXs.",
"s.gXuXuXuX( ( +X+X@Xe.#X3X3X3Xk.k.V.k.k.qX0X0X~.r.R  X X X XsXs.",
"s.{.hXhXQ &X3X3XeX+X@X#X3X3X3X}.C.B.k.k.0X0X0Xa.7.7.e e fXfX].s.",
"s.s.{.[.Q 0X0XqXqX+X+XeXeX@XC.B.B.B.qXqX0X0Xg.r.7.7.<.<.e ].s.s.",
"s.s.s.s.Q 0X0X0Xg.g.eXeXeX+X+X+XB.qXqX0X|.~.~.~.7.<.<.<.N 0 s.s.",
"s.s. X X XQ R.R.g.g.qXqX<.+X+X+X+XqX0X0X~.~.~.~.7.<.<.N N e s.s.",
"s.sX X XR R./.R.0X0X0X<.:.qXqXqX+X+X|.~.~.0X0X~.<.[ [ N 0  XiXs.",
"s.sX XR :.F.F.R.0X0X0X*.*.0X0X0Xi.|.~.r.0X0X4X7.<.N N 7  X XpXs.",
"s.sX Xe :.:.:.:.0X0Xi.*.*.0X0Xi.i.r.r.r.0X4X7.<.<.N N s 6  XpXs.",
"s.sX Xe S.D.:.@.@.r.r.r.r.r.r.} r.r.7.7.N N <.<.N N N f s 6 pXs.",
"s.sX X0 A.D.*.+.7.7.7.7.7.7.r.G G 7.7.7.d u N N N K G G G 6 pXs.",
"s.sX X X6 0 +.+.(.(.(...7.7.U G G 7.<.u u u N N N G G G 2  XpXs.",
"s.sX X X X X0 '.(.(.(.Y [ [ G G Z [ u u u @.@.N N G G >  X XpXs.",
"s.sX X X X X6 (.(.(.> U U U G A N % N N @.@.@.& & & >  X X XpXs.",
"s.sX X X X X X> > >  X& G G N + % ].. N @.@.+  X X X X X X XpXs.",
"s.sX X X X X X X X X X X@ @ + s.s.s.].    + ].pX X X X X X XpXs.",
"s.sX X X X X X X XfXfXfXfXfXs.s.s.s.s.s.s.s.s.fX X X X X X XpXs.",
"s.sX X X X X X XfX].].].].].s.s.s.s.s.s.s.s.s..XR. X X X X XpXs.",
"s.].fXfXfXfXfXfX].s.s.s.s.s.s.s.s.s..XR.s.s.R..XX.fXfXfXfXfX].s.",
"s.s.].].].].].].s.s.s.s.s.s.s.s.s.s.X.R.R.s.R.R.s.].].].].].s.s."
};
