/* XPM */
static char *dummy[]={
"64 64 427 2",
"dT c #4f2913",
"bS c #502913",
"dx c #502a13",
"dI c #502a14",
"bQ c #512a13",
"dP c #512a14",
"du c #512b14",
"bh c #522b14",
"d# c #522c15",
"aY c #532b14",
"av c #532c14",
"c0 c #532c15",
"dV c #532e17",
"cK c #53311c",
"ah c #542c14",
"#2 c #542d15",
"bF c #542d17",
"cQ c #542e16",
"dC c #542f18",
"#U c #552d15",
"#L c #552e15",
"be c #552e16",
"#D c #562e16",
"#u c #562f16",
"#l c #563016",
"cj c #563018",
"c6 c #573017",
"#c c #573117",
".5 c #573118",
"b9 c #583118",
".j c #583319",
"dH c #58331a",
".L c #593118",
".W c #593119",
"cL c #593218",
".s c #593219",
"bM c #593319",
"at c #59341b",
"dv c #59341c",
"dK c #59351c",
"dJ c #59351d",
"cB c #5a3319",
"bx c #5a3419",
"dN c #5a341b",
"dk c #5a371e",
"d8 c #5a4432",
"cz c #5b3419",
"bm c #5b341a",
".c c #5b341c",
"er c #5b371e",
"dF c #5b371f",
"c1 c #5b381f",
"ea c #5b391f",
"cy c #5b4431",
"b1 c #5b4432",
"dL c #5b4532",
"cp c #5c341a",
"bl c #5c361a",
"a6 c #5c361c",
"dA c #5c381e",
"cR c #5c3820",
"eb c #5c391f",
"cG c #5c3920",
"d7 c #5c3a20",
"cf c #5d351a",
"bk c #5d361b",
"ck c #5d3920",
"c. c #5d3a21",
"b3 c #5e361b",
"aR c #5e361d",
"aD c #5e381d",
"ap c #5e391e",
"ar c #5e3a20",
"bX c #5e3a21",
"dS c #5e3c21",
"au c #5e4834",
"bj c #5f371b",
"bU c #5f381b",
"as c #5f391f",
"bN c #5f3b22",
"by c #5f3c22",
"aW c #5f4734",
"bc c #60381c",
"bs c #60391c",
"ba c #60391d",
"bn c #603c22",
"dq c #603d23",
"dy c #603f24",
"dw c #603f26",
"a1 c #61381d",
"aZ c #61391d",
"aM c #613a1d",
"ad c #613b20",
"bd c #613d24",
"do c #614025",
"dn c #614026",
"dd c #614125",
"c5 c #614126",
"de c #614225",
"c4 c #614226",
"c3 c #614227",
"#7 c #623c22",
"a8 c #623e24",
"aE c #623f24",
"aS c #623f25",
"cV c #624127",
"cU c #624227",
"cJ c #624428",
"#X c #633d24",
"aq c #634025",
"cT c #634328",
"cI c #634428",
"d0 c #634e3c",
"ed c #63503d",
"#q c #636917",
"aK c #643e21",
"#P c #644124",
"d2 c #644126",
"#Q c #644227",
"cx c #644529",
"cn c #644629",
"cw c #64462a",
"cm c #64472c",
"ek c #64513e",
"aw c #654023",
"cd c #65472b",
"b0 c #65482c",
"ev c #65503e",
"e. c #65513f",
"es c #65523f",
".y c #656c17",
"aC c #664025",
"#H c #664127",
"ef c #664427",
"#A c #664429",
"cc c #66472b",
"bZ c #66492d",
"bP c #664a2d",
"bO c #664a2e",
"ej c #665240",
"aA c #674126",
"#I c #674328",
"#z c #674528",
"bE c #674a2d",
"br c #674a2e",
"bD c #674b2d",
"bC c #674b2e",
"dE c #675340",
"ax c #684326",
"ai c #684428",
"#h c #68452a",
"#. c #68462a",
"bg c #684c2e",
"bf c #684c2f",
"bR c #685240",
"eH c #685442",
"aB c #694428",
"dM c #69462a",
"eh c #69482a",
".b c #69482c",
"aX c #694c2e",
"b# c #694c2f",
"aI c #694c30",
"et c #695744",
"#p c #6a472c",
".a c #6a482d",
".# c #6a492d",
"ei c #6a4a2c",
"#K c #6a4e31",
"#J c #6a4f31",
"eM c #6a5745",
"dW c #6a5845",
"az c #6b462a",
"a. c #6b472b",
".M c #6b472c",
".X c #6b472d",
".6 c #6b482c",
".p c #6b482e",
"#f c #6b492c",
".f c #6b492e",
"eg c #6b4a2c",
"#9 c #6b4d30",
"#1 c #6b4e30",
"#C c #6b4e31",
"#B c #6b4e32",
"#t c #6b4f32",
".4 c #6b4f33",
"#k c #6b5032",
"ag c #6b5642",
"aH c #6b5643",
"eK c #6b5845",
"eF c #6b5846",
"dG c #6b5946",
"#V c #6c482c",
"#E c #6c482d",
".z c #6c492d",
".m c #6c492e",
"e# c #6c4a2c",
"ee c #6c4a2d",
".8 c #6c4a2e",
"em c #6c4b2d",
"bq c #6c4c2e",
"#T c #6c4f32",
"#S c #6c4f33",
".3 c #6c5033",
".V c #6c5133",
"#v c #6d482d",
"aj c #6d492c",
"#m c #6d4a2e",
"dU c #6d4b2d",
"eo c #6d4d2e",
".K c #6d5134",
".E c #6d5135",
".1 c #6e4b2f",
"bp c #6e4c2d",
"aa c #6e4c2f",
"bo c #6e4d2f",
".x c #6e5235",
"ey c #6e5d4a",
"al c #6f4c2f",
".R c #6f4d30",
".I c #6f4e31",
".C c #704f32",
"dp c #705031",
"dr c #705032",
"d3 c #705c46",
"dY c #705c47",
"d5 c #705d48",
".e c #714e33",
".d c #714f33",
"dh c #715233",
"eq c #715638",
"d6 c #715d48",
"dZ c #715e48",
"d4 c #715e49",
"el c #71604e",
"en c #725233",
"df c #725234",
"dg c #725334",
"dm c #725739",
"eD c #725f4d",
"eL c #72614e",
"aJ c #72721d",
"Qt c #72751b",
"c8 c #735436",
"dc c #735739",
"db c #735839",
"dt c #73583a",
"eC c #73614e",
"eE c #73624f",
"eI c #736350",
"c7 c #745436",
"cY c #745537",
"dj c #74593a",
"di c #74593b",
"a9 c #74604a",
"b. c #74614a",
"cA c #74624d",
"cX c #755638",
"aT c #75604a",
"aV c #75614b",
"aU c #75614c",
"co c #75634e",
"cW c #765738",
"bi c #765739",
"cv c #765b3c",
"ce c #76644f",
"eA c #766553",
"cN c #775839",
"cM c #77593a",
"cb c #775b3c",
"cu c #775b3d",
"ca c #775c3d",
"ez c #776754",
"bw c #785838",
"aL c #785a3b",
"cD c #785b3c",
"d. c #785d3e",
"cZ c #785d3f",
"b2 c #786551",
"a2 c #786651",
"dO c #786958",
".l c #787b21",
"bv c #795938",
"cC c #795b3b",
"cr c #795c3c",
"cP c #795e3f",
"ay c #796651",
"eO c #796958",
"cq c #7a5d3d",
"ch c #7a5e3e",
"bb c #7a5e3f",
"cF c #7a5f40",
"ep c #7a6142",
"dz c #7a6b59",
"cg c #7b5f3f",
"cs c #7b6041",
"bB c #7b6142",
"dD c #7b6243",
"b5 c #7c5f41",
".A c #7c6142",
"bA c #7c6243",
"dl c #7c6343",
"a5 c #7c6852",
"b4 c #7d5f40",
"bV c #7d6141",
"bI c #7d6142",
".F c #7d6143",
".N c #7d6243",
"#4 c #7d6244",
".i c #7d6344",
".h c #7d6345",
"a3 c #7d6852",
"a4 c #7d6953",
"eN c #7d6e5d",
"ew c #7d6f5d",
"bH c #7e6242",
".7 c #7e6243",
"#M c #7e6244",
".Y c #7e6343",
"ab c #7e6344",
".r c #7e6445",
"c2 c #7e6446",
"da c #7e6545",
"cS c #7e6546",
"eG c #7e6f5e",
"eJ c #7e705f",
"bG c #7f6243",
"#n c #7f6244",
"bt c #7f6343",
"#w c #7f6344",
"#W c #7f6345",
"#3 c #7f6444",
"a# c #7f6445",
"ex c #7f6545",
"dR c #7f6f5b",
"dX c #7f6f5c",
".k c #7f8226",
"a0 c #806544",
"eu c #806646",
"cH c #806647",
"ct c #806747",
"b8 c #816748",
"b7 c #816749",
"c# c #81684a",
"cl c #816949",
"dQ c #81705d",
"eB c #817362",
"bL c #826849",
"bY c #82684a",
"bz c #826949",
"bK c #83694a",
"dB c #836a49",
"aG c #83725e",
"ds c #846b4a",
".w c #846b4b",
".D c #856c4c",
"aF c #857460",
"aN c #857663",
"ak c #857664",
"bu c #866948",
".o c #866c4c",
"c9 c #866d4e",
"bT c #867664",
".u c #876d4c",
"af c #886f4f",
"cO c #886f50",
"ae c #887050",
"ao c #897050",
"#0 c #897051",
"#8 c #897150",
"aQ c #897965",
"#Z c #8a7052",
"cE c #8a7152",
".U c #8a7252",
".T c #8b7153",
"an c #8b7251",
".B c #8b7252",
".H c #8b7253",
"ci c #8c7353",
"bJ c #8c7454",
".g c #8c7554",
"#R c #8c7557",
"aP c #8c7b67",
"b6 c #8d7453",
"bW c #8d7454",
"#s c #8d7556",
"#r c #8d7557",
".q c #8d7654",
"aO c #8d7c67",
"#j c #8e7557",
"#b c #8e7657",
"#a c #8e7658",
"#6 c #8f7757",
".0 c #8f7758",
".Q c #8f7858",
".n c #907755",
".t c #907856",
".P c #907858",
".J c #917a58",
".v c #917a59",
".S c #917a5b",
".2 c #917a5c",
".G c #927957",
"#O c #947c5c",
"#y c #947d5c",
"#G c #957d5c",
"#e c #957d5d",
"#F c #967f5e",
"#Y c #968063",
"#i c #978164",
"## c #978165",
"am c #9c8662",
"ac c #9c8664",
"#5 c #9c8767",
"a7 c #9ca8ad",
".O c #9d8663",
".Z c #9d8763",
"#d c #9d8765",
"#N c #9d8768",
"#o c #9e8768",
"#x c #9e8769",
"d9 c #a2783c",
"#g c #a2814f",
".9 c #b3b0a9",
"d1 c #bd9842",
"ec c #c6a740",
"QtQtQtQtQtQtQtQtQtQtQtQtQtQtQtQtQtQtQtQtQtQtQtQtQtQtQtQtQtQtQtQtQtQtQtQtQtQtQtQtQtQtQtQtQtQtQtQtQtQtQtQtQtQtQtQtQtQtQtQtQtQtQtQt",
"QtQtQtQtQtQtQtQtQtQtQtQtQtQtQtQtQtQtQtQtQtQtQtQtQtQtQtQtQtQtQtQtQtQtQtQtQtQtQtQtQtQtQtQtQtQtQtQtQtQtQtQtQtQtQtQtQtQtQtQtQtQtQtQt",
"QtQtQtQtQtQtQtQtQtQtQtQtQtQtQtQtQtQtQtQtQtQtQtQtQtQtQtQtQtQtQtQtQtQtQtQtQtQtQtQtQtQtQtQtQtQtQtQtQtQtQtQtQtQtQtQtQtQtQtQtQtQtQtQt",
"QtQtQtQtQtQtQtQtQtQtQtQtQtQtQtQtQtQtQtQtQtQtQtQtQtQtQtQtQtQtQtQtQtQtQtQtQtQtQtQtQtQtQtQtQtQtQtQtQtQtQtQtQtQtQtQtQtQtQtQtQtQtQtQt",
"QtQtQtQtQtQtQtQtQtQtQtQtQtQtQtQtQtQt.#.a.b.cQtQtQtQtQtQtQtQtQtQtQtQtQtQtQtQtQtQtQtQtQt.d.d.d.eQtQtQtQtQtQtQtQtQtQtQtQtQtQtQtQtQt",
"QtQtQtQtQtQtQtQtQtQtQtQtQtQtQtQtQt.f.g.h.i.jQtQt.k.l.lQtQtQtQtQtQtQtQtQtQtQtQtQtQtQtQt.m.n.o.o.dQtQtQtQtQtQtQtQtQtQtQtQtQtQtQtQt",
"QtQtQtQtQtQtQtQtQtQtQtQtQtQtQtQtQt.p.q.r.r.sQtQtQt.l.l.lQtQtQtQtQtQtQtQtQtQtQtQtQtQtQt.m.t.u.o.dQtQtQtQtQtQtQtQtQtQtQtQtQtQtQtQt",
"QtQtQtQtQtQtQtQtQtQtQtQtQtQtQtQt.f.v.w.w.x.sQtQtQtQt.y.yQtQtQtQtQtQtQtQtQtQtQtQtQtQtQt.z.A.t.B.B.CQtQtQtQtQtQtQtQtQtQtQtQtQtQtQt",
"QtQtQtQtQtQtQtQtQtQtQtQtQtQtQtQt.#.v.D.D.E.sQtQtQtQtQtQtQtQtQtQtQtQtQtQtQtQtQtQtQtQtQt.z.F.G.H.B.IQtQtQtQtQtQtQtQtQtQtQtQtQtQtQt",
"QtQtQtQtQtQtQtQtQtQt.kQtQtQtQtQt.#.J.D.D.K.LQtQtQtQtQtQtQtQtQtQtQtQtQtQtQtQtQtQtQtQtQt.M.N.O.P.Q.RQtQtQtQtQtQtQtQtQtQtQtQtQtQtQt",
"QtQtQt.l.k.kQtQtQt.kQtQtQtQtQt.b.S.H.T.U.V.WQtQtQtQtQtQtQtQtQtQtQtQtQtQtQtQtQtQtQtQtQt.X.Y.Z.P.P.0.1QtQtQtQtQtQtQtQtQtQtQtQtQtQt",
"QtQtQtQt.k.l.lQt.k.kQtQtQtQtQt.b.2.T.B.3.4.5QtQtQtQtQtQtQtQtQtQtQtQtQtQtQtQtQtQtQtQtQt.6.Y.7.O.P.0.8QtQtQtQtQtQtQtQtQtQtQtQtQtQt",
"QtQtQtQt.y.l.lQt.9.9QtQtQtQtQt#.###a#b.3.3#cQtQtQtQtQtQtQtQtQtQtQtQtQtQtQtQtQtQtQtQtQt.z.Y.Y#d#e#e#fQtQtQtQtQtQtQtQtQtQtQtQtQtQt",
"QtQtQtQtQt.y.l.9#g#g.9QtQtQtQt#h#i#j#b.3#k#lQtQtQtQtQtQtQtQtQtQtQtQtQtQtQtQtQtQtQtQtQt#m#n#n#o#e#e#pQtQtQtQtQtQtQtQtQtQtQtQtQtQt",
"QtQtQtQtQtQt.y#q.9.9#qQtQtQtQt#h#i#r#s#k#t#uQtQtQtQtQtQtQtQtQtQtQtQtQtQtQtQtQtQtQtQtQt#v#w#n#x#y#y#zQtQtQtQtQtQtQtQtQtQtQtQtQtQt",
"QtQtQtQtQtQtQtQt#q#qQtQtQtQt#A#i#r#r#r#B#C#DQtQtQtQtQtQtQtQtQtQtQtQtQtQtQtQtQtQtQtQtQt#E#w#n#o#F#y#G#HQtQtQtQtQtQtQtQtQtQtQtQtQt",
"QtQtQtQtQtQtQtQtQtQtQtQtQtQt#I#i#r#s#t#J#K#LQtQtQtQtQtQtQtQtQtQtQtQtQtQtQtQtQtQtQtQtQt.z#w#n#M#N#y#O#PQtQtQtQtQtQtQtQtQtQtQtQtQt",
"QtQtQtQtQtQtQtQtQtQtQtQtQtQt#Q#i#r#R#S#T#C#UQtQtQtQtQtQtQtQtQtQtQtQtQtQtQtQtQtQtQtQt.l#V#W#w#M#N#y#O#XQtQtQtQtQtQtQtQtQtQtQtQtQt",
"QtQtQtQtQtQtQtQtQtQtQtQtQtQt#Q#Y#Z#0.3#B#1#2QtQtQtQtQtQtQtQtQtQtQtQtQtQtQtQt.k.k.lQt.l#V#3#3#4#5#6#b#7QtQtQtQtQtQtQtQtQtQtQtQtQt",
"QtQtQtQtQtQtQtQtQtQtQtQtQtQt#Q#Y#8#0#t#2#9#2QtQtQtQtQtQtQtQtQtQtQtQtQtQtQtQtQt.k.l.l.ya.a#aaabac#6#badQtQtQtQtQtQtQtQtQtQtQtQtQt",
"QtQtQtQtQtQtQtQtQtQtQtQtQtQt#Q#Yaeaf#2ag#2ahQtQtQtQtQtQtQtQtQtQtQtQtQtQtQtQtQt.y.l.l.yaiajakalamanaoapQtQtQtQtQtQtQtQtQtQtQtQtQt",
"QtQtQtQtQtQtQtQtQtQtQtQtQtQtaqarasat#2auavav.9Qt.9.9QtQtQtQtQtQtQtQtQtQtQtQtQtQt.y.yQtawaxayazaAaBaCaDQtQtQtQtQtQtQtQt.kQtQtQtQt",
"QtQtQtQtQtQtQtQtQtQtQtQtQtQtaEaFaFaGaHavaIav#q.9#g.9QtQtQtQtQtQtQtQtQtQtQtQtQtQtQtQtaJaKaLaMaNaOaPaQaRQt.l.k.kQtQtQt.kQtQtQtQtQt",
"QtQtQtQtQtQtQtQtQtQtQtQtQtQtaSaTaUaVaWavaXaYQt.9.9#qQtQtQtQtQtQtQtQtQtQtQtQtQtQtQtQtQtaZa0a1a2a3a4a5a6QtQt.ka7a7Qt.k.kQtQtQtQtQt",
"QtQtQtQtQtQtQtQtQtQtQtQtQtQta8a9aVb.avb#aXaYQt#q#qQtQtQtQtQtQtQtQtQtQtQtQtQtQtQtQtQtQtba#3bbbca5a4a5a6QtQta7#g#ga7.l.lQtQtQtQtQt",
"QtQtQtQtQtQtQtQtQtQtQtQtQtQtbdbe#2#2aIbfbgbhQtQtQtQtQtQtQtQtQtQtQtQtQtQtQtQtQtQtQtQtQtba#3#3bibjbkblbmQtQt#qa7a7#q.9.9QtQtQtQtQt",
"QtQtQtQtQtQtQtQtQtQtQtQtQtQtbnbobpbqbfbfbrbhQtQtQtQtQtQtQtQtQtQtQtQtQtQtQtQtQtQtQtQtQtbsbt#3.YbubvbwbxQtQtQt#q#qQt#g.9QtQtQtQtQt",
"QtQtQtQtQtQtQtQtQtQtQtQtQtQtbybzbAbBbCbDbEbFQtQtQtQtQtQtQtQtQtQtQtQtQtQtQtQtQtQtQtQtQtbcbGbHbIbJbKbLbMQtQtQtQtQtQt#q#qQtQtQtQtQt",
"QtQtQtQtQtQtQtQtQtQtQtQtQtQtbNbz.AbAbObPbQbRbSQtQtQtQtQtQtQtQtQtQtQtQtQtQtQtQtQtQtQtbcbTbUbHbVbWbLbL.sQtQtQtQtQtQtQtQtQtQtQtQtQt",
"QtQtQtQtQtQtQtQtQtQtQtQtQtQtbXbYbBbAbZb0bQb1bSQtQtQtQtQtQtQtQtQtQtQtQtQtQtQtQtQtQtQtbjb2b3b4b5b6b7b8b9QtQtQtQtQtQtQtQtQtQtQtQtQt",
"QtQtQtQtQtQtQtQtQtQtQtQtQtQtc.c#cacbcccdbQb1bSQtQtQtQtQtQtQtQtQtQtQtQtQtQtQtQtQtQtQtb3cecfcgchci.N.AcjQtQtQtQtQtQtQtQtQtQtQtQtQt",
"QtQtQtQtQtQtQtQtQtQtQtQtQtQtckclcacbcmcnbQb1bSQtQtQtQtQtQtQtQtQtQtQtQtQtQtQtQtQtQtQtcfcocpcqcr.H.Acs#lQtQtQtQtQtQtQtQtQtQtQtQtQt",
"QtQtQtQtQtQtQtQtQtQtQtQtQtQtckctcucvcwcxbScybSQtQtQtQtQtQtQtQtQtQtQtQtQtQtQtQtQtQtQtczcAcBcCcDcEcscFbeQtQtQtQtQtQtQtQtQtQtQtQtQt",
"QtQtQtQtQtQtQtQtQtQtQtQtQtQtcGcHcucvcIcIcJcKQtQtQtQtQtQtQtQtQtQtQtQtQtQtQtQtQtQtQtQtQtcLcMcMcNcOcFcPcQQtQtQtQtQtQtQtQtQtQtQtQtQt",
"QtQtQtQtQtQtQtQtQtQtQtQtQtQtcRcScvcvcTcUcVbSQtQtQtQtQtQtQtQtQtQtQtQtQtQtQtQtQtQtQtQtQtb9cWcXcYcOcPcZc0QtQtQtQtQtQtQtQtQtQtQtQtQt",
"QtQtQtQtQtQtQtQtQtQtQtQtQtQtc1c2cvcvc3c4c5bSQtQtQtQtQtQtQtQtQtQtQtQtQtQtQtQtQtQtQtQtQtc6c7c8c8c9cZd.d#QtQtQtQtQtQtQtQtQtQtQtQtQt",
"QtQtQtQtQtQtQtQtQtQtQtQtQtQtc1dadbdcdddeddbSQtQtQtQtQtQtQtQtQtQtQtQtQtQtQtQtQtQtQtQtQtbedfdgdh.Ddidjd#QtQtQtQtQtQtQtQtQtQtQtQtQt",
"QtQtQtQtQtQtQtQtQtQtQtQtQtQtdkdldcdmdndodobSQtQtQtQtQtQtQtQtQtQtQtQtQtQtQtQtQtQtQtQtQt#2dpdqdrdsdjdtduQtQtQtQtQtQtQtQtQtQtQtQtQt",
"QtQtQtQtQtQtQtQtQtQtQtQtQtQtdvbAdmdmdwdxdybS.k.kQtQtQtQtQtQtQtQtQtQtQtQtQtQtQtQtQtQtQtd#ardzdAdBdtdbduQtQtQtQtQtQtQtQtQtQtQtQtQt",
"QtQtQtQtQtQtQtQtQtQtQtQtQtQtdCdDdmdmdxdEdubSQt.k.lQtQtQtQt.kQtQtQtQtQtQtQtQtQtQtQtQtQtbhdFdGdHdBdmdmdIQtQtQtQtQtQtQtQtQtQtQtQtQt",
"QtQtQtQtQtQtQtQtQtQtQtQtQtQtdIdJdJdKdxdLdxbSQt.l.l.lQt.l.kQtQtQtQtQtQtQtQtQtQtQtQtQtQtdudMdNdOdIdPdIdIQtQtQtQtQtQtQtQtQtQtQtQtQt",
"QtQtQtQtQtQtQtQtQtQtQtQtQtQtdxdQdQdRdEdxdSdT.l.y.l.l.l.l.yQtQtQtQtQtQtQtQtQtQtQtQtQtQtdIdUdVdWdQdQdXdxQtQtQtQtQtQtQtQtQtQtQtQtQt",
"QtQtQtQtQtQtQtQtQtQtQtQtQtQtdxdYdZdZdLdxbSd0dTd1d1.y.l.l.yQtQtQtQtQtQtQtQtQtQtQtQtQtdxdOdxd2dHd3d4dZdxQtQtQtQtQtQtQtQtQtQtQtQtQt",
"QtQtQtQtQtQtQtQtQtQtQtQtQtQtdxdYd5d6bSd7bSd8dTd9d9d1.l.yQtQtQtQtQtQtQtQtQtQtQtQtQtQtdxe.bSe#dHd3d5d5dTQtQtQtQtQtQtQtQtQtQtQtQtQt",
"QtQtQtQtQtQtQtQtQtQtQtQtQtQtbSbSbSbSeaebdTd8dTd1d1#qQtececQtQtQtQtQtQtQtQtQtQtQtQtQtdxeddTeeefdTdTdTdTQtQtQtQtQtQtQtQtQtQtQtQtQt",
"QtQtQtQtQtQtQtQtQtQtQtQtQtQtbSegeheidFdTejd8dT#q#qQtQtd9ecQtQtQtQtQtQtQtQtQtQtQt.k.ldTekeldTemeneoeodTQtQtQtQtQtQtQtQtQtQtQtQtQt",
"QtQtQtQtQtQtQtQtQtQtQtQtQtQtdTepeqeqerdTd8d8dTQtQtQtQt#q#qQtQtQtQtQtQt.k.lQtQt.l.k.ydTesetdTemeueqeqdTQtQtQtQtQtQtQtQtQtQtQtQtQt",
"QtQtQtQtQtQtQtQtQtQtQtQtQtQtdTepeqeqdkdTd8dT#qQtQtQtQtQtQtQtQtQtQtQtQt.y.l.lQt.l.lQtQtdTetdTemdaeqeqdTQtQtQtQtQtQtQtQtQtQtQtQtQt",
"QtQtQtQtQtQtQtQtQtQtQtQtQtQtdTepeqeqdTevd8dTQtQtQtQtQtQtQtQtQtQtQtQtQtQt.y.l.l.l.yQtQtdTetewdTexeqeqdTQtQtQtQtQtQtQtQtQtQtQtQtQt",
"QtQtQtQtQtQtQtQtQtQtQtQtQtQtdTdTdTdTdTd8d8dTQtQtQtQtQtQtQtQtQtQtQtQtQtQt.y.l.l.yQtQtQtdTdGeydTdTdTdTdTQtQtQtQtQtQtQtQtQtQtQtQtQt",
"QtQtQtQtQtQtQtQtQtQtQtQtQtQtdTezezeAejd8dTQtQtQtQtQtQtQtQtQtQtQtQtQtQtQtQt.y.lQtQtQtQtQtdTeyeBeCeCeDdTQtQtQtQtQtQtQtQtQtQtQtQtQt",
"QtQtQtQtQtQtQtQtQtQtQtQtQtQtdTeEeFeFd8d8dTQtQtQtQtQtQtQtQtQtQtQtQtQtQtQtQtQtQtQtQtQtQtQtdTeyeGeHeHeHdTQtQtQtQtQtQtQtQtQtQtQtQtQt",
"QtQtQtQtQtQtQtQtQtQtQtQtQtQtdTeIeFeFd8d8dTQtQtQtQtQtQtQtQtQtQtQtQtQtQtQtQtQtQtQtQtQtQtQtdTeyeJeHeHeHdTQtQtQtQtQtQtQtQtQtQtQtQtQt",
"QtQtQtQtQtQtQtQtQtQtQtQtQtQtdTeEeFeKd8dTQtQtQtQtQtQtQtQtQtQtQtQtQtQtQtQtQtQtQtQtQtQtQtQtQtdTeweHeHeHdTQtQtQtQtQtQtQtQtQtQtQtQtQt",
"QtQtQtQtQtQtQtQtQt.k.kQtQtQtdTeLeFeMd8dTQtQtQtQtQtQtQtQtQtQtQtQtQtQtQtQtQtQtQtQtQtQtQtQtQtdTeNeHeHeHdTQtQtQtQtQt.l.k.kQtQtQtQtQt",
"QtQtQt.lQtQtQt.l.l.kQtQtQtQtdTeLeFeKd8dTQtQtQtQtQtQtQtQtQtQtQtQtQtQtQtQtQtQtQtQtQtQtQtQtQtdTeOeHeHeHdTQtQtQtQt.l.l.kQtQtQtQtQtQt",
"QtQtQtQt.k.kQt.l.l.yQtQtQtQtdTdTdTdTdTQtQtQtQtQtQtQtQtQtQtQtQtQtQtQtQtQtQtQtQtQtQtQtQtQtQtQtdTdTdTdTdTQtQtQtQt.l.l.yQtQtQtQtQtQt",
"QtQtQtQt.k.l.l.y.yQtQtQtQtQtQtQtQtQtQtQtQtQtQtQtQtQtQtQtQtQtQtQtQtQtQtQtQtQtQtQtQtQtQtQtQtQtQtQtQtQtQtQtQtQtQt.y.yQtQtQtQtQtQtQt",
"QtQtQtQt.y.l.lQtQtQtQtQtQtQtQtQtQtQtQtQtQtQtQtQtQtQtQtQtQtQtQtQtQtQtQtQtQtQtQtQtQtQtQtQtQtQtQtQtQtQtQtQtQtQtQtQtQtQtQtQtQtQtQtQt",
"QtQtQtQtQt.yQtQtQtQtQtQtQtQtQtQtQtQtQtQtQtQtQtQtQtQtQtQtQtQtQtQtQtQtQtQtQtQtQtQtQtQtQtQtQtQtQtQtQtQtQtQtQtQtQtQtQtQtQtQtQtQtQtQt",
"QtQtQtQtQtQtQtQtQtQtQtQtQtQtQtQtQtQtQtQtQtQtQtQtQtQtQtQtQtQtQtQtQtQtQtQtQtQtQtQtQtQtQtQtQtQtQtQtQtQtQtQtQtQtQtQtQtQtQtQtQtQtQtQt",
"QtQtQtQtQtQtQtQtQtQtQtQtQtQtQtQtQtQtQtQtQtQtQtQtQtQtQtQtQtQtQtQtQtQtQtQtQtQtQtQtQtQtQtQtQtQtQtQtQtQtQtQtQtQtQtQtQtQtQtQtQtQtQtQt",
"QtQtQtQtQtQtQtQtQtQtQtQtQtQtQtQtQtQtQtQtQtQtQtQtQtQtQtQtQtQtQtQtQtQtQtQtQtQtQtQtQtQtQtQtQtQtQtQtQtQtQtQtQtQtQtQtQtQtQtQtQtQtQtQt",
"QtQtQtQtQtQtQtQtQtQtQtQtQtQtQtQtQtQtQtQtQtQtQtQtQtQtQtQtQtQtQtQtQtQtQtQtQtQtQtQtQtQtQtQtQtQtQtQtQtQtQtQtQtQtQtQtQtQtQtQtQtQtQtQt"};
