/* XPM */
static char *_99eb78fc8c44f81e26625a85956b057eZJYgisjKaY0E2a5[] = {
/* columns rows colors chars-per-pixel */
"64 64 92 1 ",
"  c #4D2712",
". c #4E2812",
"X c #522B14",
"o c #532F18",
"O c #5A3117",
"+ c #56321A",
"@ c #5A351D",
"# c #5E391E",
"$ c #603A1F",
"% c #5B3720",
"& c #5E3A21",
"* c #623D23",
"= c #646B17",
"- c #72751B",
"; c #644126",
": c #664529",
"> c #69462A",
", c #67482B",
"< c #6A4A2D",
"1 c #6C4E31",
"2 c #644F3C",
"3 c #704E31",
"4 c #6E5234",
"5 c #66523F",
"6 c #6C563E",
"7 c #715537",
"8 c #765837",
"9 c #735738",
"0 c #755A3A",
"q c #795E3E",
"w c #787B21",
"e c #7A603F",
"r c #675240",
"t c #695642",
"y c #6C5A46",
"u c #6D5C48",
"i c #715C45",
"p c #7A5F40",
"a c #715E48",
"s c #7D6241",
"d c #74624C",
"f c #756551",
"g c #786751",
"h c #7B6A55",
"j c #7E6E5A",
"k c #7F705B",
"l c #7F7262",
"z c #806545",
"x c #836947",
"c c #826848",
"v c #836848",
"b c #866B4A",
"n c #876C4B",
"m c #846B4D",
"M c #876E4F",
"N c #876F4F",
"B c #886C4C",
"V c #8A714F",
"C c #876E50",
"Z c #886F51",
"A c #8B7353",
"S c #8E7653",
"D c #8B7254",
"F c #8B7455",
"G c #8C7455",
"H c #8D7455",
"J c #81715B",
"K c #81715C",
"L c #907756",
"P c #907857",
"I c #917858",
"U c #937B5C",
"Y c #937C5C",
"T c #947C5C",
"R c #867661",
"E c #847562",
"W c #867966",
"Q c #897B67",
"! c #8E7F6A",
"~ c #8C7F6C",
"^ c #977F61",
"/ c #7F8226",
"( c #A2814F",
") c #8E806C",
"_ c #998263",
"` c #9A8364",
"' c #9B8567",
"] c #928371",
"[ c #938472",
"{ c #948675",
"} c #9CA8AD",
"| c #B3B0A9",
/* pixels */
"----------------------------------------------------------------",
"----------------------------------------------------------------",
"----------------------------------------------------------------",
"----------------------------------------------------------------",
"----------------------------------------------------------------",
"------------------------/ww-------------------------------------",
"-------------------------ww<<<<1*13111--------------------------",
"-----------------------><>*VVVBnOnnbbb@;;;----------------------",
"---------------------<>LPI$VVVBbOnbbbb@qqq*;--------------------",
"----------/--------*$ASSLI$_`_TY#TTTTG@qqqq0@&------------------",
"---w//---/-------->v#B''''$0000z#qqqqs@GGGG9*7&-----------------",
"----/ww-//-------<BM#^0Bss*ss00s$qqsss;::zpG*74&----------------",
"----=ww-||------>bBT*00Mss*sss0s:qqsss::vsss;Z79@---------------",
"-----=w|((|----->bUq*0Mzss:sssss:qssse<vssps:sM7@---------------",
"------==||=----;pD0q*8Bzzz:sssss>qssse<sssss<qeM7@--------------",
"--------==-----:F00q;vsssz<sssss>sssss<ssssp<eeem@--------------",
"--------------;pD000<szzzz<ssssz>sssss<sssss1eeqC1@-------------",
"--------------;C0000<szzzs<ssssz:sssss<sssss4eeqqD+-------------",
"--------------;M0000<ssszs<ssssz:zssss<sssss1qqqqD+-------------",
"--------------@00000<sss;s<pppps<xssss<s*sss1qqqqqX-------------",
"--------------@@@@******[><pppps<xssss<*]****&@@@@X-------------",
"--------------+hhKJJRRRRh!;pppps<xssss*]hRRjjjjkhhX--------/----",
"--------------+iidddhhhhhh!;qqqs<vsss*]hhhfdddddyyX-w//---/-----",
"--------------+iidddhhhhhhoqqqqs>vssssohhhfdddddyyX--/}}-//-----",
"--------------+XXXooooooho7qqqqs>xssss<ohooXXXXXXXX--}((}ww-----",
"--------------+;;;:<#<<<o17qqqqs>vssss<<o<<<<<<<,,X--=}}=||-----",
"--------------o90900&pss<11qqqqs>bssss<e<ppp490999X---==-(|-----",
"--------------o99900;spsp11qqqqs:Mssss<sqqqq499999X------==-----",
"--------------o99900<sqqq<1qqqqs:Mssss<sqqqq499999X-------------",
"--------------o99999<sqqq<1qqqqs:Mssss<sqqqq499999X-------------",
"--------------X99999<sqqqq10qqqs:Mssss1sqqqq499999X-------------",
"--------------X99999<s000010000s:meess1sqqqq199999X-------------",
"--------------X99999<s00001000@***&eee4sqqqq199999X-------------",
"--------------X99999<s0000100@)!!!Q#qq4sqqqq199444X-------------",
"--------------X999991p0999100#ddddd@qq4s0q00,44444X-------------",
"--------------X99999<p9999100@ddXdd@0q1s0000:44444X-------------",
"--------------X99999<p9999100XaaXaaX001s0000:44444X-------------",
"--------------X99999<p9999<90X66666X00<s0000:44444X-------------",
"--------------.99999<s99&9<99<XXXXX<99<q*000:44444.-------------",
"--------------.++@@@#&&&)&<999<<@<<0991*~&&%@@@@++.-------------",
"--------------.hgjhhRRRRfQ&99999;q0990*~dKKhhhhhgg.-------------",
"--------------.ttaaadddffgQ&9999;9990*~dddduuuuu66.-------------",
"--------------.ttuaadddfggX99999;99999Xdddduuuuu66.-------------",
"--------------....XXXXXXfX;99999;99999;Xu...X.X....-------------",
"--------------.**;::@,<<X:;99999;99994;<.:::*:;*** -------------",
"--------------.44444@444,9;99999&94444;0:000*11111 -------------",
"--------------.44444&44449*99999@44444*00000&11111 -------------",
"--------------.44444&44444&99999o44444&00000&11111 -------------",
"--------------.o@@&&&%%%%%@++oX.XXo++@@@@@@@+++o   -------------",
"--------------.ddddffffghhhhhhjl.RRjhhhhgfffffffff -------------",
"--------------.RWWWWWWWWW)~~~~{{.{{~~~~WWWWWWWWWWW -------------",
"--------------.5555rrrrtttyttuuf.fuuuuyyytttt25522 -------------",
"--------------.555555rttttyttuuf.fuuutyyytttt22222 -------------",
"--------------.2225tttttttyttuuf.fuuuuyyttttttt222 -------------",
"---------//---.222ttttttttytyuuf.fuuuuuyyttttttt22 -----w//-----",
"---w---ww/----  ........................           ----ww/------",
"----//-ww=---------------------------------------------ww=------",
"----/ww==----------------------------------------------==-------",
"----=ww---------------------------------------------------------",
"-----=----------------------------------------------------------",
"----------------------------------------------------------------",
"----------------------------------------------------------------",
"----------------------------------------------------------------",
"----------------------------------------------------------------"
};
