/* XPM */
static char *s61aPTgGUhBMVNA_png[] = {
/* columns rows colors chars-per-pixel */
"64 64 18 1 ",
"  c black",
". c #636917",
"X c #656C17",
"o c #72751B",
"O c #787B21",
"+ c #3A3365",
"@ c #503842",
"# c #A2783C",
"$ c #C96519",
"% c #D84427",
"& c #7F8226",
"* c #A2814F",
"= c #C6A740",
"- c #A23D8A",
"; c #A2AC9C",
": c #9CA8AD",
"> c #B3B0A9",
", c #E7E7D9",
/* pixels */
"oooooooooooooooooooooooooooooooooooooooooooooooooooooooooooooooo",
"oooooooooooooooooooooooooooooooooooooooooooooooooooooooooooooooo",
"oooooooooooooooooooooooooooooooooooooooooooooooooooooooooooooooo",
"oooooooooooooooooooooooooooooooooooooooooooooooooooooooooooooooo",
"oooooooooooooooooooooooooooooooooooooooooooooooooooooooooooooooo",
"oooooooooooooooooooooooo&OOooooooooooooooooooooooooooooooooooooo",
"oooooooooooooooooooooooooOOOoooooooooooooooooooooooooooooooooooo",
"ooooooooooooooooooooooooooXXoooooooooooooooooooooooooooooooooooo",
"oooooooooooooooooooooooooooooooooooooooooooooooooooooooooooooooo",
"oooooooooo&ooooooooooooooooooooooooooooooooooooooooooooooooooooo",
"oooO&&ooo&oooooooooooooooooooooooooooooooooooooooooooooooooooooo",
"oooo&OOo&&oooooooooooooooooooooooooooooooooooooooooooooooooooooo",
"ooooXOOo>>oooooooooooooooooooooooooooooooooooooooooooooooooooooo",
"oooooXO>**>ooooooooooooooooooooooooooooooooooooooooooooooooooooo",
"ooooooX.>>.ooooooooooooooooooooooooooooooooooooooooooooooooooooo",
"oooooooo..ooooooooooooooooooooooooooooooooooOOoooooooooooooooooo",
"oooooooooooooooooooooooooo    ooooooooooooo  ooooooooooooooooooo",
"oooooooooooooooooooooooooo +-+   ooooooo   ++ oooooooooooooooooo",
"oooooooooooooooooooooooooo -+-+++  oo   ++++  oooooooooooooooooo",
"oooooooooooooooooooooooooo +-++++--  ++++-  Xooooooooooooooooooo",
"oooooooooooooooooooo>>ooooo +++---++++++  XXoooooooooooooooooooo",
"ooooooooooooooooooo>**>o>>o +---++++++  XXooooooooooooooooo&oooo",
"ooooooooooooooooooo.>>.>*>o ---+++++  ;;  ooooooooooO&&ooo&ooooo",
"oooooooooooooooooo>>..o>>.o -+++++  ;;,,,, oooooooooo&::o&&ooooo",
"oooooooooooooooooo*>ooo..o  ++-+  ;;,,,,,, oooooooooo:**:OOooooo",
"oooooooooooooooooo..oooo  ++++  ;;,,,,,,,,, ooooooooo.::.>>ooooo",
"ooooooooooooooooooooooo ++++  ;;,,,,  ,,,,, oooooooooo..o*>ooooo",
"oooooooooooooooooooooooo     ;,,,,,,  ,,,,  ooooooooooooo..ooooo",
"oooooooooooooooooooooooooooo ;,,,,,,,,,,, $  ooooooooooooooooooo",
"oooooooooooooooooooooooooooo ;,,,,,,,,,, %%$$  ooooooooooooooooo",
"ooooooooooooooooooooooooooooo ,,,,,,,,, %%%%%$$ oooooooooooooooo",
"oooooooooooooooooooooooooo    ,,,,,,,,,, %%%%%% oooooooooooooooo",
"oooooooooooooooooo  ooo   ++++  ,,,,,,,,       ooooooooooooooooo",
"oooooooooooooooooo ,   +++++++-+  ,,,,; ; oooooooooooooooooooooo",
"oooooooooooooooooo ,; ++++-++-+-++  ; ;;;, ooooooooooooooooooooo",
"ooooooooooooooooooo ; -+++++++-+++ ;;;,,,, ooooooooooooooooooooo",
"ooooooooooooooooooo  ++++++++++++ ,,,,,,,, ooooooooooooooooooooo",
"oooooooooooooooooooo +++-++++++++ ,,,,,,,, ooooooooooooooooooooo",
"oooooooooooooooooooo ++-+-++++++ ,,,,,,,;; ooooooooooooooooooooo",
"ooooooooooooooooooooo ++-+++++++ ,,,,;;;  oooooooooooooooooooooo",
"ooooooooooooooooooooo +++++++++ ;;;;;   oooooooooooooooooooooooo",
"oooooooooooooooooooo& ++++++-+       ooooooooooooooooooooooooooo",
"oooooooooooooooooooooO +++++++ ooooooooooooooooooooooooooooooooo",
"oooooooooooooooooooooX +++++++ ooooooooooooooooooooooooooooooooo",
"oooooooooooooooooooooo. -+++  % oooooooooooooooooooooooooooooooo",
"oooooooooooooooooooo==o ++   %%$ ooooooo&Ooooooooooooooooooooooo",
"ooooooooooooooooooo=##=o  @@@ %%$ o&OooO&Xoooooooooooooooooooooo",
"ooooooooooooooooooo.==.o          oXOOoOOooooooooooooooooooooooo",
"oooooooooooooooooooo..ooooooooooooooXOOOXooooooooooooooooooooooo",
"ooooooooooooooooooooooooooooooooooooXOOXoooooooooooooooooooooooo",
"oooooooooooooooooooooooooooooooooooooXOooooooooooooooooooooooooo",
"oooooooooooooooooooooooooooooooooooooooooooooooooooooooooooooooo",
"oooooooooooooooooooooooooooooooooooooooooooooooooooooooooooooooo",
"oooooooooooooooooooooooooooooooooooooooooooooooooooooooooooooooo",
"ooooooooo&&oooooooooooooooooooooooooooooooooooooooooooooO&&ooooo",
"oooOoooOO&oooooooooooooooooooooooooooooooooooooooooooooOO&oooooo",
"oooo&&oOOXoooooooooooooooooooooooooooooooooooooooooooooOOXoooooo",
"oooo&OOXXooooooooooooooooooooooooooooooooooooooooooooooXXooooooo",
"ooooXOOooooooooooooooooooooooooooooooooooooooooooooooooooooooooo",
"oooooXoooooooooooooooooooooooooooooooooooooooooooooooooooooooooo",
"oooooooooooooooooooooooooooooooooooooooooooooooooooooooooooooooo",
"oooooooooooooooooooooooooooooooooooooooooooooooooooooooooooooooo",
"oooooooooooooooooooooooooooooooooooooooooooooooooooooooooooooooo",
"oooooooooooooooooooooooooooooooooooooooooooooooooooooooooooooooo"
};
