/* XPM */
static char *_88e7c6bd0b3444c83c96c68d288ee72AtX8FfsfPRJGI5RL[] = {
/* columns rows colors chars-per-pixel */
"64 64 88 1 ",
"  c #4F2713",
". c #4E2913",
"X c #532C14",
"o c #542E19",
"O c #57321C",
"+ c #59341D",
"@ c #5D381E",
"# c #5B3721",
"$ c #5E3B24",
"% c #613D25",
"& c #613E29",
"* c #646B17",
"= c #72751B",
"- c #624127",
"; c #64442C",
": c #674B2F",
"> c #694A2F",
", c #674731",
"< c #654A35",
"1 c #6A4D31",
"2 c #634C38",
"3 c #6C4E39",
"4 c #6E5134",
"5 c #66513D",
"6 c #68523F",
"7 c #705335",
"8 c #735539",
"9 c #75593B",
"0 c #785A3E",
"q c #787B21",
"w c #675341",
"e c #695542",
"r c #6C5843",
"t c #6F5F4D",
"y c #7A5E43",
"u c #6F604E",
"i c #7D6144",
"p c #73624E",
"a c #7F6548",
"s c #746552",
"d c #796653",
"f c #7A6A56",
"g c #7C6D5C",
"h c #7E705E",
"j c #806649",
"k c #836A4D",
"l c #876E52",
"z c #886F52",
"x c #806F5E",
"c c #877053",
"v c #8A7256",
"b c #81715F",
"n c #8C765A",
"m c #8E795C",
"M c #907A5D",
"N c #827564",
"B c #857866",
"V c #867968",
"C c #897C6B",
"Z c #947F63",
"A c #957F64",
"S c #7F8226",
"D c #A2814F",
"F c #8F816E",
"G c #958064",
"H c #988167",
"J c #998468",
"K c #9C876C",
"L c #8E8270",
"P c #918374",
"I c #938676",
"U c #948778",
"Y c #93887B",
"T c #94897B",
"R c #968B7C",
"E c #978C7C",
"W c #988B7E",
"Q c #988D7E",
"! c #998F81",
"~ c #9B9182",
"^ c #9C9384",
"/ c #9E9487",
"( c #9F9588",
") c #A1978B",
"_ c #A1988B",
"` c #A2998C",
"' c #9CA8AD",
"] c #B3B0A9",
/* pixels */
"================================================================",
"================================================================",
"================================================================",
"================================================================",
"================================================================",
"========================Sqq=====================================",
"=========================qqq====================================",
"==========================**====================================",
"================================================================",
"==========S=====================================================",
"===qSS===S======================================================",
"====Sqq=SS======================================================",
"====*qq=]]======================================================",
"=====*q]DD]=====================================================",
"======**]]*=====================================================",
"========**==================================qq==================",
"===========================================Sq===================",
"==========================================qq*===================",
"==================$+++================SSq=qq$++$================",
"=================#xfd+XXXXX+=XXXXXXXX=XXXXXX$ddg+===============",
"=================;Bxg$74477k+k4477749$a44774-ggB%===============",
"=================<TCC%ikkkkc;mkkkkkkv;ckkkkk;VVY;==========S====",
"=================3!II&jkkkkm>Zkkkkkkm;nkkkkk;II!;===qSS===S=====",
"=================3(UU&anmmmH9MnmmmmmM>nnnnnn;II(,====S''=SS=====",
"=================3)~~&kmmmmH9GmmmmmmZ1mmmmmm;RW(,===='DD'qq=====",
"=================3`));kGGGGK8HAAAAAAG1GAAAAA,)))<====*''*]]=====",
"=================3`))&kGGGGJ8HGGGGGGG1GAGGGG,((`<=====**=D]=====",
"=================3`)(%kAGGGJ8JAGAAAAG>GAAAAA,/()<========**=====",
"=================;_QQ%aMMMMJ8HMMMmmmG>Gmmmmm;EE)<===============",
"=================;)EE$iMMMMG8GMMMmmmG>Gmmmmm;TT(<===============",
"=================&^LL+iMMMMA1GmmmmmmG;GMmmmm;FF~<===============",
"=================%~LL+0kkkkv1vkkkkkkn%nkkkkk;FF!,===============",
"=================%RVVX9kkkkz%vkkkkkkn@vkkkkk&VVT-===============",
"=================$PVVX9kkkjl@liyyyyyv+vkkkkk&BBL&===============",
"=================+XXXX90009jX7$$$##+yO998774$XXX#===============",
"=================+TRTXXXXXXXXXXFFFF+XXXXXXXXOTTT$===============",
"=================$CggX-&&&&&X$XgXXfX$X1;;;;;XggC$===============",
"=================$VggX;77889X1XsbXuX$X944444XffB#===============",
"=================%NssX;44449X1XpuXuX$X911111XssN+===============",
"=================$gpsX-44119X1Xe6feX$X811111Xspgo===============",
"=================OdppX-11119X1-XXXX$1X811111.uudX===============",
"=================Xprr.%>>>>9X11----11X81:::1.rrpX===============",
"=================.prr.%::::8X11111111X8:::::.erp ===============",
"=================.pre.$1:::8X11111111X8::::1.erp ===============",
"================= ##OO$$$$$9X$$$$$$$$X8$$$$$OOOO ===============",
"================= BNNB...XXXXXXXXXXXXXXXX...BNNB ===============",
"=================.uuus.fggbNBCCCCCVVVVBNhgg.sttu ===============",
"================= 222p.5555wweeeeeeeeeeewww.p222 ===============",
"=================                                ===============",
"====================================*qq*========================",
"=====================================*q=========================",
"================================================================",
"================================================================",
"================================================================",
"=========SS=============================================qSS=====",
"===q===qqS=============================================qqS======",
"====SS=qq*=============================================qq*======",
"====Sqq**==============================================**=======",
"====*qq=========================================================",
"=====*==========================================================",
"================================================================",
"================================================================",
"================================================================",
"================================================================"
};
