/* XPM */
static char *_c90b62eb4ee4658dad8adb055175d0eI4QVZQwlX8QlIHyp[] = {
/* columns rows colors chars-per-pixel */
"64 64 26 1 ",
"  c black",
". c #7A213A",
"X c #636917",
"o c #656C17",
"O c #676D18",
"+ c #686E18",
"@ c #6A7018",
"# c #6C7019",
"$ c #72751B",
"% c #73761C",
"& c #74771D",
"* c #75781E",
"= c #777A20",
"- c #787B21",
"; c #797D22",
": c #D2612F",
"> c #E14141",
", c #E47070",
"< c #7D8025",
"1 c #A2814F",
"2 c #682B82",
"3 c #BF3FB3",
"4 c #9CA8AD",
"5 c #B3B0A9",
"6 c #B2BCC2",
"7 c white",
/* pixels */
"$$$$$$$$$$$$$$$$$$$$$$$$$$$$$$$$$$$$$$$$$$$$$$$$$$$$$$$$$$$$$$$$",
"$$$$%$%$$$$$$$$$$$$$$$$$$$$$$$$$$$$$$$$$$$$$$$$$$$$$$$$$$$$$$$$$",
"$$$$$$%%$$$$$$$$$$$$$$$$$$$$$$$$$$$$$$$$$$$$$$$$$$$$$$$$$$$$$$$$",
"$$$$$$$$$$$$$$$$$$$$$$$$$$$$$$$$$$$$$$$$$$$$$$$$$$$$$$$$$$$$$$$$",
"$$$$$$$$$$$$$$$$$$$$$$$$$$$$$$$$$$$$$$$$$$$$$$$$$$$$$$$$$$$$$$$$",
"$$$$$$$$%%&%%$$$$$$$$$$$=**$$$$$$$$$$$$$$$$$$$$$$$$$$$$$$$$$$$$$",
"$$$$$$$$$%%%%%$$$$$$$$$$$&**$$$$$$$$$$$$$$$$$$$$$$$$$$$$$$$$$$$$",
"$$$$$$$$%%%$$$$$$$$$$$$$%$#@&$$$$$$$$$$$$$$$$$$$$$$$$$$$$$$$$$$$",
"$$$$$$$$$$%%$$$$$$$$$$$$$$$$$$$%$$$$%$$$$$$$$$$$$$$$$$$$$$$$$$$$",
"$$$$$$$$$$$$$$$$$$$$$$$$$$$$$$$$%$$$$$$$$$$$$$$$$$$$$$$$$$$$$$$$",
"$$$$$$$$$$$$$$$$$$$$$$$$$$$$$$$$$$%$$$$$$$$$$$$$$$$$$$$$$$$$$$$$",
"$$$$$$$$$$$$$$$$$$$$$$$$$$$$$$$$$%%$$$$$$$$$$$$$$$$$$$$$$$$$$$$$",
"$$$$$$$$$$$$$$$$$$$$$$$%$$$$$$$$$$$$$$$$$$$$$$$$$$$$$$$$$$$$$$$$",
"$$$$$$$$$$$$$$$$$$$$$$$$$$$$$$$$$$$$$$$$$$$$$$$$$$$$$$$$$$$$$$$$",
"$$$$$$$$$$$$$$$$$$$$$$$$$$$$$$$$$$$$$$$$$$$$$$$$$$$$$$$$$$$$$$$$",
"$$$$$$$$$$$$$$$$$$$$$$$$$$$$$$$$$$$$$$$$$$$$--$$$$$$$$$$$$$$$$$$",
"$$$$$$$$$$$$$$$$$$$$$$$$$$    $$$$$$$$$$$$$  $$$$$$$$$$$$$$$$$$$",
"$$$$$$$$$$$$$$$$$$$$$$$$&$ 232   $$$%$$$   22 $$$$$$$$$$$$$$$$$$",
"$$$$$$$$$$$$$$$$$$$$$$%%%% 323222  %%   2222  $$$$$$$$$$$$$$$$$$",
"$$%$$$$$$$$$$$$$$$$$$$$%$% 23222233  22223  o$$$$$$$$$$$$$$$$$$$",
"$$$$$$$$$$$$$$$$$$$$$$%%%%% 222333222222  oo$$$$$$$$$$$$$$$$$$$$",
"$$$$$$$$$$$$$$$$$$$$$$$%$%$ 2333222222  oo$$$$$$$$$$$$$$$$$<$$$$",
"$$$$$$$$$$$$$$$$$$$$$$$$$$$ 33322222  66  $$$$$$$$$$-<<$$$<$$$$$",
"$$$$$$$$$$$$$$$$$$$$$$$$$$$ 322222  667777 $$$$$$$$$$<44$<<$$$$$",
"$$$$$$$$$$$$$$$$$$$$$$$$$$  2232  66777777 $$$$$$$$$$4114--$$$$$",
"$$$$$$$$$$$$$$$$$$$$$$$$  2222  66777777777 $$$$$$$$$X44X55$$$$$",
"$$$$$$$$$$$$$$$$$$$$$$$ 2222  667777  77777 $$$$$$$$$$XX$15$$$$$",
"$$$$$$$$$$$$$$$$$$$$$$$$     6777777  7777  $$$$$$$$$$$$$XX$$$$$",
"$$$$$$$$$$$$$$$$$$$$$$$$$$$$ 677777777777 ,  $$$$$$$$$$$$$$$$$$$",
"$$$$$$$$$$$$$$$$$$$$$$$$%%$$ 67777777777 >>,,  $$$$$$$$$$$$$$$$$",
"$$$$$$$$$$$$$$$$$$$%$$$%%$$$$ 777777777 >>>>>,, $$$$$$$$$$$$$$$$",
"$$%$$$$$$$$$$$$$$$$$%%$%%$    7777777777 >>>>>> $$$$$$$$$$$$$$$$",
"$$$$$$$$$$$$$$$$$$  $$%   2222  77777777       $$$$$$$$$$$$$$$$$",
"$$$$$$$$$$$$$$$$$$ 7   222222232  77776 6 $$$$$$$$$$$$$$$$$$$$$$",
"$$$$$$$$$$$$$$$$$$ 76 222232232322  6 6666 $$$$$$$$$$$$$$$$$$$$$",
"$$$$$$$$$$$$$$$$$$$ 6 322222223222 6667777 $$$$$$$$$$$$$$$$$$$$$",
"$$$$$$$$$$$$$$$$$$$  222222222222 77777777 $$$$$$$$$$$$$$$$$$$$$",
"$%$$$$$$$$$$$$$$$$$$ 222322222222 77777777 $$$$$$$$$$$$$$$$$$$$$",
"$$$$$$$$$$$$$$$$$$$$ 22323222222 777777766 $$$$$$$$$$$$$$$$$$$$$",
"$$$$$$$$$$$$$$$$$$$$$ 2232222222 7777666  $$$$$$$$$$$$$$$$$$$$$$",
"$$$$$$$$$$$$$$$$$$$$$ 222222222 66666   $$$$$$$$$$$$$$$$$$$$$$$$",
"$$$$$$$$$$$$%%$$$$$$$ 22222232       $$$$$$$$$$$$$$$$$$$$$$$$$$$",
"$$$$$$$$$$$$%$$$$$$$$$ 2222222 $$$$$$$$$$$$$$$$$$$$$$$$$$$$$$$$$",
"$$$$%%%$$$$$$$$$$$$$$$ 2222222 $$$$$$$$$$$$$$$$$$$$$$$$$$$$$$$$$",
"$$$%%$$$$$$$$$$$$$$$$$$ 3222  > $$$$$$$$$$$$$$$$$$$$$$$$$$$$$$$$",
"$$$%$$$$$$$$$$$$$$$$$$$ 22   >:: $$$$$$$<-$$$$$$$$$$$$$$$$$$$$$$",
"$$%$$$$$$$$$$$$$$$$$$$$%  . >>::: $;*$$=<o$$$$$$$$$$$$$$$$$$$$$$",
"$$$$$$$$$$$$$$$$$$$$$$$$          $@**$==$$$$$$$$$$$$$$$$$$$$$$$",
"$$$$$$$$$$$$$$$$$$$$$$$$$$$$$$$$$$$$+*==o$$$$$$$$$$$$$$$$$$$$$$$",
"$$$$$$$$$$$$$$$$$$$$$$$$$$$$$$$$$$$$+*=O$$$$$$$$$$$$$$$$$$$$$$$$",
"$$$$$$$$$$$$$$$$$$$$$$$$$$$$$$$$$$$$$+=$$$$$$$$$$$$$$$$$$$$$$$$$",
"$$$$$$$$$$$$$$$$$$$$$$$$$$$$$$$$$$$$$$$$$$$$$$$$$$$$$$$$$$$$$$$$",
"$$$$$$$$$$$$$$$$$$$$$$$$$$$$$$$$$$$$$$$$$$$$$$$$$$$$$$$$$$$$$$$$",
"$$$%$$%$$$$$$$$$$$$$$$$$$$$$$$$$$$$$$$$$$$$$$$$$$$$$$$$$$$$$$$$$",
"$$%$$$%$$;;$$$$$$$$$$$$$$$$$$$$$$$$$$$$$$$$$$$$$$$$$$$$$-<<$$$$$",
"$$$=&%$**;$$$$$$$$$$$$$$$$$$$$$$$$$$$$$$$$$$$$$$$$$$$$$--<$$$$$$",
"$$$%<;$**+$$$$$$$$$$$$$$$$$$$$$$$$$$$$$$$$$$$$$$$$$$$$$--o$$$$$$",
"$$$%<**++$$$$$$$$$$$$$$$$$$$$$$$$$$$$$$$$$$$$$$$$$$$$$$oo$$$$$$$",
"$$%%o=*$$$$$$$$$$$$$$$$$$$$$$$$$$$$$$$$$$$$$$$$$$$$$$$$$$$$$$$$$",
"$$%$$+$$$$$$$$%%$$$$$$$$$$$$$$$$$$$$$$$$$$$$$$$$$$$$$$$$$$$$$$$$",
"$$$$$$$$$$$$$$%$$$$$$$$$$$$$$$$$$$$$$$$$$$$$$$$$$$$$$$$$$$$$$$$$",
"$$$$$$$$$$$$$$$$$$$$$$$$$$$$$$$$$$$$$$$$$$$$$$$$$$$$$$$$$$$$$$$$",
"$$$$$$$$$$$$$$$$$$$$$$$$$$$$$$$$$$$$$$$$$$$$$$$$$$$$$$$$$$$$$$$$",
"$$$$$$$$$$$$$$$$$$$$$$$$$$$$$$$$$$$$$$$$$$$$$$$$$$$$$$$$$$$$$$$$"
};
