/* XPM */
static char *de52e42838384dbcafaeff5ceb97efc9cvvU2YLDAGY0rVd9[] = {
/* columns rows colors chars-per-pixel */
"64 64 56 1 ",
"  c #573B17",
". c #5A3F18",
"X c #5B4017",
"o c #5C4418",
"O c #5F4919",
"+ c #4E5313",
"@ c #515514",
"# c #5E5714",
"$ c #545815",
"% c #5F5914",
"& c #5B5E18",
"* c #614B1A",
"= c #615A15",
"- c #625819",
"; c #5D6117",
": c #5E6118",
"> c #646B17",
", c #636618",
"< c #6D631A",
"1 c #66691A",
"2 c #6A6D1A",
"3 c #75691A",
"4 c #7B6F1C",
"5 c #6E711B",
"6 c #6F711C",
"7 c #72751B",
"8 c #70721C",
"9 c #73741E",
"0 c #77771F",
"q c #7B701C",
"w c #7C711D",
"e c #78771F",
"r c #77781F",
"t c #78791F",
"y c #777820",
"u c #787B21",
"i c #7B7B22",
"p c #7C7B22",
"a c #7E7D22",
"s c #7F7D27",
"d c #7F7E28",
"f c #807F23",
"g c #807E27",
"h c #807E28",
"j c #7F8226",
"k c #818023",
"l c #84822C",
"z c #88832F",
"x c #89842F",
"c c #878331",
"v c #888331",
"b c #888431",
"n c #8B8732",
"m c #A2814F",
"M c #9CA8AD",
"N c #B3B0A9",
/* pixels */
"7777777777777777777777777777777777777777777777777777777777777777",
"7777777777777777777777777777777777777777777777777777777777777777",
"7777777777777777777777777777777777777777777777777777777777777777",
"7777777777777777777777777777777777777777777777777777777777777777",
"7777777777777777777777777777777777777777777777777777777777777777",
"777777777777777777777777juu7777777777777777777777777777777777777",
"7777777777777777777777777uuu777777777777777777777777777777777777",
"77777777777777777777777777>>777777777777777777777777777777777777",
"7777777777777777777777777777777777777777777777777777777777777777",
"7777777777j77777777777777777777777777777777777777777777777777777",
"777ujj777j7777777777777777777***77777777777777777777777777777777",
"7777juu7jj777777777777777777*ccc*7777777777777777777777777777777",
"7777>uu7NN777777777777777****cccc*777777777777777777777777777777",
"77777>uNmmN7777777777777*cvvvvvcc*7***77777777777777777777777777",
"777777>>NN>777777777***7*bbbbubbbv*ccc*7777777777777777777777777",
"77777777>>777777777*lll*bbbbb00aaabvvc*77777uu777777777777777777",
"7777777777777777777*llllbbbbrrraaabbbb*7****u7777777777777777777",
"7777777777777777777*llll5bbbttaaaabbb21*cccc*7777777777777777777",
"77777777777777777777*lb555bbbbbaaaaa211avcccc*777777777777777777",
"77777777777777777***uuu4w66bbbbbabbbb11aavccc*777777777777777777",
"7777777777777777*y0uuuqqbbf8bbbbabbbb1111aaaaa****77777777777777",
"7777777777777777*00uuqbbbbfffbbbf<bb<222bbvaaaggds*77777777j7777",
"7777777777777777*eruuabbbbkwwkfff<<<<<bbbbvaa2ggssO7ujj777j77777",
"777777777777777*25uubbbbbbwwwkkf86uu<<bbbbaaa2ghssO77jMM7jj77777",
"777777777777***5555bbbbfbbbw888888uuu<bbbaaaa22gsO777MmmMuu77777",
"77777777777*aaaa55bbbbfkbbbb888uuuuuu65bbbv522222O777>MM>NN77777",
"7777777777Opaaaa51bbbff8kbbbk88uuuffa65bbbvc522222OO77>>7mN77777",
"7777777777*paaa1112afff8kkkkk8uuufffaa55bbvca2222000O7777>>77777",
"7777777777*paa111122fff88kkkk11uuffbbbaaaaaaa22:0000O77777777777",
"77777777777*,111zzxaff888tttt11188fbbbbaaaaau2;:0000O77777777777",
"777777777777*11lzxxafff88tttt1118866bbbbba22&;:&000O777777777777",
"77777777777*80lllzaafffk11tt11111ffaabbbbv2222:%%088O77777777777",
"7777777777O890llla33afff811111886fabbbbbbva2222&%%%#uOO777777777",
"7777777777O8990aaa333ff888111888faabbbb5aaaa222&:%2uuuuO77777777",
"77777777777*9911llzx3336661126ffaa<bbb22aaaa222&:22uuuuO77777777",
"777777777777O111llzz366661116bbbba<<<222-aap22&&2222uuuo77777777",
"77777777779Olll1llzll55111188bbbb<555@222---$$::22222uO777777777",
"7777777777Ocllllllllla1111688bbb5552@@@2222$$$&&21221O7777777777",
"777777777opuccll,aaaaa11115555555aaa@@@222$$$$uuu222O77777777777",
"777777777oppuup,,,,aa111===555=22aaaa@===&&&$uuuu299o77777777777",
"7777777777ouuu,,,,,,111==:::===22aaaa@==&&&&$uuuu2999o7777777777",
"77777777777o,,222,,,111==,,,,===2<aaa6&&&&&&&uuu##999o7777777777",
"77777777777o22222++,,,,=$::::$0022<<<88&:&&&+----##99.7777777777",
"777777777777o222++++,,==$:::$9009022888&&22&++##+++..77777777777",
"7777777777777o++++%===$$$$$$$90000+8888+&211&&&+++.7777777777777",
"7777777777777.++++%%%=$$$$$$$$889++8888++1122&&&&+.7777777777777",
"77777777777777.++%o%%$$,,,,$$$$$++++88+++2222&&&&&.7777777777777",
"777777777777777...7o%$,,,,,++@$$$$++++++..22&&&.  77777777777777",
"77777777777777777777X.,,,,++++$$&$&&&&&.>7.&&& 77777777777777777",
"777777777777777777777.,,,++.++$$.&&&&&& 777   777777777777777777",
"7777777777777777777777.+++.7....7 &&&  7777777777777777777777777",
"77777777777777777777777...77777777   777777777777777777777777777",
"7777777777777777777777777777777777777777777777777777777777777777",
"7777777777777777777777777777777777777777777777777777777777777777",
"777777777jj777777777777777777777777777777777777777777777ujj77777",
"777u777uuj777777777777777777777777777777777777777777777uuj777777",
"7777jj7uu>777777777777777777777777777777777777777777777uu>777777",
"7777juu>>7777777777777777777777777777777777777777777777>>7777777",
"7777>uu777777777777777777777777777777777777777777777777777777777",
"77777>7777777777777777777777777777777777777777777777777777777777",
"7777777777777777777777777777777777777777777777777777777777777777",
"7777777777777777777777777777777777777777777777777777777777777777",
"7777777777777777777777777777777777777777777777777777777777777777",
"7777777777777777777777777777777777777777777777777777777777777777"
};
