/* XPM */
static char *cdc9cfc06d534f8996a29af736f8a7c8Cosl8lD6M1mK63MU[] = {
/* columns rows colors chars-per-pixel */
"64 64 67 1 ",
"  c #4D2711",
". c #4E2812",
"X c #512B14",
"o c #593722",
"O c #5B3A25",
"+ c #5D3E2A",
"@ c #646A17",
"# c #696F18",
"$ c #72751B",
"% c #76791F",
"& c #5F412E",
"* c #52453A",
"= c #55493D",
"- c #60412E",
"; c #777A20",
": c #787B21",
"> c #574B40",
", c #594E43",
"< c #5C5246",
"1 c #5F5549",
"2 c #655E55",
"3 c #676056",
"4 c #686157",
"5 c #676158",
"6 c #6B655C",
"7 c #6E685F",
"8 c #70685F",
"9 c #6F6A60",
"0 c #726E65",
"q c #747067",
"w c #76736A",
"e c #78756D",
"r c #797770",
"t c #7D7B74",
"y c #7E7B74",
"u c #7F7C75",
"i c #7E8126",
"p c #A2814F",
"a c #828079",
"s c #868378",
"d c #87857A",
"f c #87847D",
"g c #88857A",
"h c #89877B",
"j c #8A877D",
"k c #8B897D",
"l c #8C8A7D",
"z c #8B8981",
"x c #8C8A81",
"c c #8E8C82",
"v c #908E83",
"b c #918F87",
"n c #929087",
"m c #939088",
"M c #94928A",
"N c #96948B",
"B c #95938C",
"V c #97948D",
"C c #98968E",
"Z c #99978F",
"A c #9A9890",
"S c #9D9A93",
"D c #9E9B94",
"F c #9F9C95",
"G c #A09C96",
"H c #9CA8AD",
"J c #B3B0A9",
/* pixels */
"$$$$$$$$$$$$$$$$$$$$$$$$$$$$$$$$$$$$$$$$$$$$$$$$$$$$$$$$$$$$$$$$",
"$$$$$$$$$$$$$$$$$$$$$$$$$$$$$$$$$$$$$$$$$$$$$$$$$$$$$$$$$$$$$$$$",
"$$$$$$$$$$$$$$$$$$$$$$$$$$$$$$$$$$$$$$$$$$$$$$$$$$$$$$$$$$$$$$$$",
"$$$$$$$$$$$$$$$$$$$$$$$$$$$$$$$$$$$$$$$$$$$$$$$$$$$$$$$$$$$$$$$$",
"$$$$$$$$$$$$$$$$$$$$$$$$$$$$$$$$$$$$$$$$$$$$$$$$$$$$$$$$$$$$$$$$",
"$$$$$$$$$$%$$$$$$$$$$+++----&&&&&&&+++++OOo$$$$$$$$$$$$$$$$$$$$$",
"$$$$$$$$$$$$$$$$$$$$+jxxddddddddccdddddddddo$$$$$$$$$$$$$$$$$$$$",
"$$$$$$$$$$$$$$$$$$$+bxxddddddddddddddddddddbO$$$$$$$$$$$$$$$$$$$",
"$$$$$$$$$$$$$$$$$$$ObkggggggggggggggdddddddbO$$$$$$$$$$$$$$$$$$$",
"$$$$$$$$$$$$$$$$$$$OndgggggggggggggggggggddmO$$$$$$$$$$$$$$$$$$$",
"$$$$$$$$$$$$$$$$$$$OMdggggggggggggggggvvggsM+$$$$$$$$$$$$$$$$$$$",
"$$$$$$$$$$$$$$$$$$$OBdgggggggggggggggbbbgggN-$$$$$$$$$$$$$$$$$$$",
"$$$$$$$$$$$$$$$$$$$OVdgggggggggggggggbbbgggM-$$$$$$$$$$$$$$$$$$$",
"$$$$$$$$$$$$$$$$$$$OZdgggggggggggggggggggggZ-$$$$$$$$$$$$$$$$$$$",
"$$$$$$$$$$$$$$$$$$$OAkkgggjggjdggggggggggggZ+$$$$$$$$$$$$$$$$$$$",
"$$$$$$$$$$$$$$$$$$$+AkkkjjjjjkkjjgkkkllkgggS+:$$$$$$$$$$$$$$$$$$",
"$$$$$$$$$$$$$$$$$$$+AkkkjjjjkkkkkklllllljggS+$$$$$$$$$$$$$$$$$$$",
"$$$$$$$$$$$$$$$$$$$-AkkkMMjkkkkkkkkkkllbbbnS-$$$$$$$$$$$$$$$$$$$",
"$$$$$$$$$$$$$$$$$$$-ZkkkMMlkkkkkkkkklllbbDG0O$$$$$$$$$$$$$$$$$$$",
"$$$$$$$$$$$$$$$$$$$X8ZkllllkkkkkkkklbbbbF000X$$$$$$$$$$$$$$$$$$$",
"$$$$$$$$$$$$$$$$$$$X08SSSSZZZVVVVVZZZZGGG002X$$$$$$$$$$$$$$$$$$$",
"$$$$$$$$$$$$$$$$$$$X7ffewwwwwwww777777777z44X$$$$$$$$$$$$$$i$$$$",
"$$$$$$$$$$$$$$$$$$$Xz77ewwwwww77777777777z44X$$$$$$$:ii$$$i$$$$$",
"$$$$$$$$$$$$$$$$$$$Xz77777www7777777777777x2X$$$$$$$$iHH$ii$$$$$",
"$$$$$$$$$$$$$$$$$$$Xz7777777777777777777777jX$$$$$$$$HppH::$$$$$",
"$$$$$$$$$$$$$$$$$$$Xu777777777,,,7777777770aX$$$$$$$$@HH@JJ$$$$$",
"$$$$$$$$$$$$$$$$$$$Xt777777777>0q1177777770aX$$$$$$$$$@@$pJ$$$$$",
"$$$$$$$$$$$$$$$$$$$Xt677777777>770w77777770uX$$$$$$$$$$$$@@$$$$$",
"$$$$$$$$$$$$$$$$$$$Xt667777777>,,7777777770rX$$$$$$$$$$$$$$$$$$$",
"$$$$$$$$$$$$$$$$$$$Xr666666777>001177777770rX$$$$$$$$$$$$$$$$$$$",
"$$$$$$$$$$$$$$$$$$$Xr6666666760770067777000rX$$$$$$$$$$$$$$$$$$$",
"$$$$$$$$$$$$$$$$$$$Xr6666666666677766777000rX$$$$$$$$$$$$$$$$$$$",
"$$$$$$$$$$$$$$$$$$$Xe5566666666<,6666666000rX$$$$$$$$$$$$$$$$$$$",
"$$$$$$$$$$$$$$$$$$$.e333666666=006>66666000eX$$$$$$$$$$$$$$$$$$$",
"$$$$$$$$$$$$$$$$$$$.e333366666*9==*66555500e.$$$$$$$$$$$$$$$$$$$",
"$$$$$$$$$$$$$$$$$$$.w223226666=999*55555500e.$$$$$$$$$$$$$$$$$$$",
"$$$$$$$$$$$$$$$$$$$.w222226666**=2722555570e.$$$$$$$$$$$$$$$$$$$",
"$$$$$$$$$$$$$$$$$$$.w2222266626692222355550e.$$$$$$$$$$$$$$$$$$$",
"$$$$$$$$$$$$$$$$$$$.q22222>>222222222235525e.$$$$$$$$$$$$$$$$$$$",
"$$$$$$$$$$$$$$$$$$$.02222>wq6622***22233355e.$$$$$$$$$$$$$$$$$$$",
"$$$$$$$$$$$$$$$$$$$.0222,066666*77722233333e.$$$$$$$$$$$$$$$$$$$",
"$$$$$$$$$$$$$$$$$$$.0222,q6666*22=*22223333e.$$$$$$$$$$$$$$$$$$$",
"$$$$$$$$$$$$$$$$$$$.022,,q66227*27722222322e.$$$$$$$$$$$$$$$$$$$",
"$$$$$$$$$$$$$$$$$$$$.**>w6662227***22222222e.$$$$$$$$$$$$$$$$$$$",
"$$$$$$$$$$$$$$$$$$$$.*q06666222277722222266e.$$$$$$$$$$$$$$$$$$$",
"$$$$$$$$$$$$$$$$$$$$.*026662222222222222266e.$$$$$$$$$$$$$$$$$$$",
"$$$$$$$$$$$$$$$$$$$$.e22266222=*2**22222666e.$$$$$$$$$$$$$$$$$$$",
"$$$$$$$$$$$$$$$$$$$.w2222222227*2*722223366w.$$$$$$$$$$$$$$$$$$$",
"$$$$$$$$$$$$$$$$$$$.02222322222727232224663w.$$$$$$$$$$$$$$$$$$$",
"$$$$$$$$$$$$$$$$$$$.02233322333=4=433344433w.$$$$$$$$$$$$$$$$$$$",
"$$$$$$$$$$$$$$$$$$$.0333333433**4**44344333w.$$$$$$$$$$$$$$$$$$$",
"$$$$$$$$$$$$$$$$$$$.07333344349940044443333w.$$$$$$$$$$$$$$$$$$$",
"$$$$$$$$$$$$$$$$$$$.w73334444446666644==333w.$$$$$$$$$$$$$$$$$$$",
"$$$$$$$$$$$$$$$$$$$.w9734444466666666=<<666w.$$$$$$$$$$$$$$$$$$$",
"$$$$$$$$$::$$$$$$$$.w997777764664466=<<<,,3w.$$$$$$$$$$$:ii$$$$$",
"$$$;%$$%%:$$$$$$$$$.w99777777666446=<<<<1<1w.$$$$$$$$$$::i$$$$$$",
"$$$$i:$%%#$$$$$$$$$$..                   .  $$$$$$$$$$$::@$$$$$$",
"$$$$i%%##$$$$$$$$$$$$$$$$$$$$$$$$$$$$$$$$$$$$$$$$$$$$$$@@$$$$$$$",
"$$$$@;%$$$$$$$$$$$$$$$$$$$$$$$$$$$$$$$$$$$$$$$$$$$$$$$$$$$$$$$$$",
"$$$$$#$$$$$$$$$$$$$$$$$$$$$$$$$$$$$$$$$$$$$$$$$$$$$$$$$$$$$$$$$$",
"$$$$$$$$$$$$$$$$$$$$$$$$$$$$$$$$$$$$$$$$$$$$$$$$$$$$$$$$$$$$$$$$",
"$$$$$$$$$$$$$$$$$$$$$$$$$$$$$$$$$$$$$$$$$$$$$$$$$$$$$$$$$$$$$$$$",
"$$$$$$$$$$$$$$$$$$$$$$$$$$$$$$$$$$$$$$$$$$$$$$$$$$$$$$$$$$$$$$$$",
"$$$$$$$$$$$$$$$$$$$$$$$$$$$$$$$$$$$$$$$$$$$$$$$$$$$$$$$$$$$$$$$$"
};
